Compagnon-Medium.ufo
<glyph name="exclam" format="2">
	<advance width="600"/>
	<unicode hex="0021"/>
	<outline>
		<contour>
			<point x="237" y="454" type="line"/>
			<point x="258" y="220" type="line"/>
			<point x="338" y="220" type="line"/>
			<point x="358" y="454" type="line"/>
			<point x="358" y="603" type="line"/>
			<point x="237" y="603" type="line"/>
		</contour>
		<contour>
			<point x="374" y="0" type="line"/>
			<point x="374" y="148" type="line"/>
			<point x="226" y="148" type="line"/>
			<point x="226" y="0" type="line"/>
		</contour>
	</outline>
</glyph>
<glyph name="quotedbl" format="2">
	<advance width="600"/>
	<unicode hex="0022"/>
	<outline>
		<contour>
			<point x="326" y="484" type="line"/>
			<point x="347" y="310" type="line"/>
			<point x="427" y="310" type="line"/>
			<point x="447" y="484" type="line"/>
			<point x="447" y="603" type="line"/>
			<point x="326" y="603" type="line"/>
		</contour>
		<contour>
			<point x="154" y="484" type="line"/>
			<point x="175" y="310" type="line"/>
			<point x="255" y="310" type="line"/>
			<point x="275" y="484" type="line"/>
			<point x="275" y="603" type="line"/>
			<point x="154" y="603" type="line"/>
		</contour>
	</outline>
</glyph>
<glyph name="numbersign" format="2">
	<advance width="600"/>
	<unicode hex="0023"/>
	<outline>
		<contour>
			<point x="342" y="590" type="line"/>
			<point x="252" y="590" type="line"/>
			<point x="207" y="369" type="line"/>
			<point x="53" y="369" type="line"/>
			<point x="33" y="284" type="line"/>
			<point x="189" y="284" type="line"/>
			<point x="167" y="175" type="line"/>
			<point x="33" y="175" type="line"/>
			<point x="13" y="90" type="line"/>
			<point x="150" y="90" type="line"/>
			<point x="112" y="-93" type="line"/>
			<point x="202" y="-93" type="line"/>
		</contour>
		<contour>
			<point x="429" y="284" type="line"/>
			<point x="566" y="284" type="line"/>
			<point x="586" y="369" type="line"/>
			<point x="447" y="369" type="line"/>
			<point x="492" y="590" type="line"/>
			<point x="402" y="590" type="line"/>
			<point x="262" y="-93" type="line"/>
			<point x="352" y="-93" type="line"/>
			<point x="390" y="90" type="line"/>
			<point x="546" y="90" type="line"/>
			<point x="566" y="175" type="line"/>
			<point x="407" y="175" type="line"/>
		</contour>
	</outline>
</glyph>
<glyph name="dollar" format="2">
	<advance width="600"/>
	<unicode hex="0024"/>
	<outline>
		<contour>
			<point x="258" y="653" type="line"/>
			<point x="258" y="-63" type="line"/>
			<point x="348" y="-63" type="line"/>
			<point x="348" y="653" type="line"/>
		</contour>
		<contour>
			<point x="459" y="416" type="curve"/>
			<point x="559" y="416" type="line"/>
			<point x="559" y="547"/>
			<point x="486" y="603"/>
			<point x="295" y="603" type="curve" smooth="yes"/>
			<point x="93" y="603"/>
			<point x="37" y="531"/>
			<point x="37" y="410" type="curve" smooth="yes"/>
			<point x="37" y="279"/>
			<point x="150" y="249"/>
			<point x="299" y="249" type="curve" smooth="yes"/>
			<point x="435" y="249"/>
			<point x="461" y="231"/>
			<point x="461" y="177" type="curve" smooth="yes"/>
			<point x="461" y="93"/>
			<point x="420" y="82"/>
			<point x="299" y="82" type="curve" smooth="yes"/>
			<point x="203" y="82"/>
			<point x="142" y="93"/>
			<point x="142" y="162" type="curve"/>
			<point x="42" y="162" type="line"/>
			<point x="42" y="40"/>
			<point x="120" y="-13"/>
			<point x="299" y="-13" type="curve" smooth="yes"/>
			<point x="498" y="-13"/>
			<point x="562" y="36"/>
			<point x="561" y="181" type="curve" smooth="yes"/>
			<point x="560" y="291"/>
			<point x="495" y="344"/>
			<point x="312" y="344" type="curve" smooth="yes"/>
			<point x="176" y="344"/>
			<point x="137" y="356"/>
			<point x="137" y="413" type="curve" smooth="yes"/>
			<point x="137" y="479"/>
			<point x="150" y="508"/>
			<point x="295" y="508" type="curve" smooth="yes"/>
			<point x="406" y="508"/>
			<point x="459" y="493"/>
		</contour>
	</outline>
</glyph>
<glyph name="percent" format="2">
	<advance width="600"/>
	<unicode hex="0025"/>
	<outline>
		<contour>
			<point x="121" y="-30" type="line"/>
			<point x="540" y="558" type="line"/>
			<point x="469" y="609" type="line"/>
			<point x="50" y="21" type="line"/>
		</contour>
		<contour>
			<point x="121" y="464" type="curve" smooth="yes"/>
			<point x="121" y="530"/>
			<point x="146" y="532"/>
			<point x="164" y="532" type="curve" smooth="yes"/>
			<point x="182" y="532"/>
			<point x="207" y="530"/>
			<point x="207" y="464" type="curve" smooth="yes"/>
			<point x="207" y="405"/>
			<point x="182" y="400"/>
			<point x="164" y="400" type="curve" smooth="yes"/>
			<point x="146" y="400"/>
			<point x="121" y="405"/>
		</contour>
		<contour>
			<point x="54" y="464" type="curve" smooth="yes"/>
			<point x="54" y="358"/>
			<point x="104" y="329"/>
			<point x="164" y="329" type="curve" smooth="yes"/>
			<point x="224" y="329"/>
			<point x="274" y="358"/>
			<point x="274" y="464" type="curve" smooth="yes"/>
			<point x="274" y="576"/>
			<point x="224" y="603"/>
			<point x="164" y="603" type="curve" smooth="yes"/>
			<point x="104" y="603"/>
			<point x="54" y="576"/>
		</contour>
		<contour>
			<point x="397" y="122" type="curve" smooth="yes"/>
			<point x="397" y="188"/>
			<point x="422" y="190"/>
			<point x="440" y="190" type="curve" smooth="yes"/>
			<point x="458" y="190"/>
			<point x="483" y="188"/>
			<point x="483" y="122" type="curve" smooth="yes"/>
			<point x="483" y="63"/>
			<point x="458" y="58"/>
			<point x="440" y="58" type="curve" smooth="yes"/>
			<point x="422" y="58"/>
			<point x="397" y="63"/>
		</contour>
		<contour>
			<point x="330" y="122" type="curve" smooth="yes"/>
			<point x="330" y="16"/>
			<point x="380" y="-13"/>
			<point x="440" y="-13" type="curve" smooth="yes"/>
			<point x="500" y="-13"/>
			<point x="550" y="16"/>
			<point x="550" y="122" type="curve" smooth="yes"/>
			<point x="550" y="234"/>
			<point x="500" y="261"/>
			<point x="440" y="261" type="curve" smooth="yes"/>
			<point x="380" y="261"/>
			<point x="330" y="234"/>
		</contour>
	</outline>
</glyph>
<glyph name="plus" format="2">
	<advance width="600"/>
	<unicode hex="002B"/>
	<outline>
		<contour>
			<point x="50" y="292" type="line"/>
			<point x="50" y="207" type="line"/>
			<point x="550" y="207" type="line"/>
			<point x="550" y="292" type="line"/>
		</contour>
		<contour>
			<point x="343" y="500" type="line"/>
			<point x="253" y="500" type="line"/>
			<point x="253" y="0" type="line"/>
			<point x="343" y="0" type="line"/>
		</contour>
	</outline>
</glyph>
<glyph name="one" format="2">
	<advance width="600"/>
	<unicode hex="0031"/>
	<outline>
		<contour>
			<point x="520" y="85" type="line"/>
			<point x="344" y="85" type="line"/>
			<point x="344" y="590" type="line"/>
			<point x="80" y="590" type="line"/>
			<point x="80" y="505" type="line"/>
			<point x="254" y="505" type="line"/>
			<point x="254" y="85" type="line"/>
			<point x="81" y="85" type="line"/>
			<point x="81" y="0" type="line"/>
			<point x="520" y="0" type="line"/>
		</contour>
	</outline>
</glyph>
<glyph name="five" format="2">
	<advance width="600"/>
	<unicode hex="0035"/>
	<outline>
		<contour>
			<point x="535" y="190" type="curve" smooth="yes"/>
			<point x="536" y="349"/>
			<point x="445" y="382"/>
			<point x="310" y="382" type="curve" smooth="yes"/>
			<point x="243" y="382"/>
			<point x="197" y="366"/>
			<point x="168" y="331" type="curve"/>
			<point x="186" y="505" type="line"/>
			<point x="501" y="505" type="line"/>
			<point x="501" y="590" type="line"/>
			<point x="103" y="590" type="line"/>
			<point x="75" y="270" type="line"/>
			<point x="165" y="245" type="line"/>
			<point x="199" y="283"/>
			<point x="223" y="297"/>
			<point x="301" y="297" type="curve" smooth="yes"/>
			<point x="397" y="297"/>
			<point x="445" y="269"/>
			<point x="445" y="194" type="curve" smooth="yes"/>
			<point x="445" y="110"/>
			<point x="413" y="72"/>
			<point x="304" y="72" type="curve" smooth="yes"/>
			<point x="175" y="72"/>
			<point x="154" y="122"/>
			<point x="154" y="187" type="curve"/>
			<point x="64" y="187" type="line"/>
			<point x="64" y="31"/>
			<point x="161" y="-13"/>
			<point x="304" y="-13" type="curve" smooth="yes"/>
			<point x="476" y="-13"/>
			<point x="534" y="53"/>
		</contour>
	</outline>
</glyph>
<glyph name="semicolon" format="2">
	<advance width="600"/>
	<unicode hex="003B"/>
	<outline>
		<contour>
			<point x="397" y="282" type="line"/>
			<point x="397" y="430" type="line"/>
			<point x="249" y="430" type="line"/>
			<point x="249" y="282" type="line"/>
		</contour>
		<contour>
			<point x="408" y="148" type="line"/>
			<point x="236" y="148" type="line"/>
			<point x="236" y="5" type="line"/>
			<point x="294" y="5" type="line"/>
			<point x="241" y="-151" type="line"/>
			<point x="307" y="-173" type="line"/>
			<point x="408" y="15" type="line"/>
		</contour>
	</outline>
</glyph>
<glyph name="greater" format="2">
	<advance width="600"/>
	<unicode hex="003E"/>
	<outline>
		<contour>
			<point x="540" y="229" type="line"/>
			<point x="540" y="314" type="line"/>
			<point x="60" y="513" type="line"/>
			<point x="60" y="428" type="line"/>
			<point x="425" y="271" type="line"/>
			<point x="60" y="114" type="line"/>
			<point x="60" y="29" type="line"/>
		</contour>
	</outline>
</glyph>
<glyph name="question" format="2">
	<advance width="600"/>
	<unicode hex="003F"/>
	<outline>
		<contour>
			<point x="229" y="195" type="curve"/>
			<point x="316" y="195" type="line"/>
			<point x="316" y="217"/>
			<point x="321" y="239"/>
			<point x="353" y="249" type="curve" smooth="yes"/>
			<point x="460" y="284"/>
			<point x="546" y="324"/>
			<point x="546" y="425" type="curve" smooth="yes"/>
			<point x="546" y="551"/>
			<point x="476" y="603"/>
			<point x="308" y="603" type="curve" smooth="yes"/>
			<point x="155" y="603"/>
			<point x="54" y="569"/>
			<point x="54" y="371" type="curve"/>
			<point x="144" y="371" type="line"/>
			<point x="144" y="469"/>
			<point x="160" y="518"/>
			<point x="308" y="518" type="curve" smooth="yes"/>
			<point x="424" y="518"/>
			<point x="458" y="490"/>
			<point x="457" y="429" type="curve" smooth="yes"/>
			<point x="456" y="354"/>
			<point x="368" y="342"/>
			<point x="297" y="311" type="curve" smooth="yes"/>
			<point x="239" y="286"/>
			<point x="229" y="250"/>
		</contour>
		<contour>
			<point x="346" y="0" type="line"/>
			<point x="346" y="148" type="line"/>
			<point x="198" y="148" type="line"/>
			<point x="198" y="0" type="line"/>
		</contour>
	</outline>
</glyph>
<glyph name="C" format="2">
	<advance width="600"/>
	<unicode hex="0043"/>
	<outline>
		<contour>
			<point x="459" y="403" type="curve"/>
			<point x="559" y="403" type="line"/>
			<point x="551" y="534"/>
			<point x="483" y="603"/>
			<point x="308" y="603" type="curve" smooth="yes"/>
			<point x="29" y="603"/>
			<point x="40" y="411"/>
			<point x="40" y="302" type="curve" smooth="yes"/>
			<point x="40" y="90"/>
			<point x="99" y="-13"/>
			<point x="308" y="-13" type="curve" smooth="yes"/>
			<point x="483" y="-13"/>
			<point x="551" y="56"/>
			<point x="559" y="187" type="curve"/>
			<point x="459" y="187" type="line"/>
			<point x="456" y="125"/>
			<point x="426" y="77"/>
			<point x="308" y="77" type="curve" smooth="yes"/>
			<point x="149" y="77"/>
			<point x="140" y="168"/>
			<point x="140" y="302" type="curve" smooth="yes"/>
			<point x="140" y="445"/>
			<point x="147" y="513"/>
			<point x="308" y="513" type="curve" smooth="yes"/>
			<point x="426" y="513"/>
			<point x="456" y="465"/>
		</contour>
	</outline>
</glyph>
<glyph name="F" format="2">
	<advance width="600"/>
	<unicode hex="0046"/>
	<outline>
		<contour>
			<point x="168" y="495" type="line"/>
			<point x="531" y="495" type="line"/>
			<point x="531" y="590" type="line"/>
			<point x="68" y="590" type="line"/>
			<point x="68" y="0" type="line"/>
			<point x="168" y="0" type="line"/>
			<point x="168" y="259" type="line"/>
			<point x="473" y="259" type="line"/>
			<point x="473" y="354" type="line"/>
			<point x="168" y="354" type="line"/>
		</contour>
	</outline>
</glyph>
<glyph name="G" format="2">
	<advance width="600"/>
	<unicode hex="0047"/>
	<outline>
		<contour>
			<point x="560" y="303" type="line"/>
			<point x="217" y="303" type="line"/>
			<point x="217" y="218" type="line"/>
			<point x="463" y="218" type="line"/>
			<point x="463" y="124"/>
			<point x="429" y="77"/>
			<point x="312" y="77" type="curve" smooth="yes"/>
			<point x="156" y="77"/>
			<point x="140" y="139"/>
			<point x="140" y="314" type="curve" smooth="yes"/>
			<point x="140" y="447"/>
			<point x="149" y="513"/>
			<point x="308" y="513" type="curve" smooth="yes"/>
			<point x="426" y="513"/>
			<point x="456" y="465"/>
			<point x="459" y="403" type="curve"/>
			<point x="559" y="403" type="line"/>
			<point x="551" y="534"/>
			<point x="483" y="603"/>
			<point x="308" y="603" type="curve" smooth="yes"/>
			<point x="99" y="603"/>
			<point x="40" y="513"/>
			<point x="40" y="315" type="curve" smooth="yes"/>
			<point x="40" y="79"/>
			<point x="96" y="-13"/>
			<point x="302" y="-13" type="curve" smooth="yes"/>
			<point x="380" y="-13"/>
			<point x="437" y="21"/>
			<point x="470" y="84" type="curve"/>
			<point x="473" y="84" type="line"/>
			<point x="488" y="0" type="line"/>
			<point x="560" y="0" type="line"/>
		</contour>
	</outline>
</glyph>
<glyph name="H" format="2">
	<advance width="600"/>
	<unicode hex="0048"/>
	<outline>
		<contour>
			<point x="64" y="590" type="line"/>
			<point x="64" y="0" type="line"/>
			<point x="164" y="0" type="line"/>
			<point x="164" y="590" type="line"/>
		</contour>
		<contour>
			<point x="436" y="590" type="line"/>
			<point x="436" y="0" type="line"/>
			<point x="536" y="0" type="line"/>
			<point x="536" y="590" type="line"/>
		</contour>
		<contour>
			<point x="141" y="331" type="line"/>
			<point x="141" y="236" type="line"/>
			<point x="470" y="236" type="line"/>
			<point x="470" y="331" type="line"/>
		</contour>
	</outline>
</glyph>
<glyph name="K" format="2">
	<advance width="600"/>
	<unicode hex="004B"/>
	<outline>
		<contour>
			<point x="349" y="283" type="line"/>
			<point x="549" y="590" type="line"/>
			<point x="434" y="590" type="line"/>
			<point x="259" y="323" type="line"/>
			<point x="151" y="323" type="line"/>
			<point x="151" y="590" type="line"/>
			<point x="51" y="590" type="line"/>
			<point x="51" y="0" type="line"/>
			<point x="151" y="0" type="line"/>
			<point x="151" y="238" type="line"/>
			<point x="259" y="238" type="line"/>
			<point x="427" y="0" type="line"/>
			<point x="549" y="0" type="line"/>
		</contour>
	</outline>
</glyph>
<glyph name="L" format="2">
	<advance width="600"/>
	<unicode hex="004C"/>
	<outline>
		<contour>
			<point x="71" y="590" type="line"/>
			<point x="71" y="0" type="line"/>
			<point x="171" y="0" type="line"/>
			<point x="171" y="590" type="line"/>
		</contour>
		<contour>
			<point x="529" y="95" type="line" smooth="yes"/>
			<point x="72" y="95" type="line"/>
			<point x="72" y="0" type="line"/>
			<point x="529" y="0" type="line"/>
		</contour>
	</outline>
</glyph>
<glyph name="N" format="2">
	<advance width="600"/>
	<unicode hex="004E"/>
	<anchor x="300" y="603" name="top"/>
	<outline>
		<contour>
			<point x="547" y="590" type="line"/>
			<point x="447" y="590" type="line"/>
			<point x="447" y="127" type="line"/>
			<point x="181" y="590" type="line"/>
			<point x="53" y="590" type="line"/>
			<point x="53" y="0" type="line"/>
			<point x="153" y="0" type="line"/>
			<point x="153" y="449" type="line"/>
			<point x="411" y="0" type="line"/>
			<point x="547" y="0" type="line"/>
		</contour>
	</outline>
</glyph>
<glyph name="P" format="2">
	<advance width="600"/>
	<unicode hex="0050"/>
	<guideline x="-4" y="214" angle="270"/>
	<guideline x="110" y="214" angle="270"/>
	<guideline x="56" y="246" angle="90"/>
	<guideline x="149" y="271" angle="90"/>
	<outline>
		<contour>
			<point x="152" y="203" type="line"/>
			<point x="337" y="203" type="line" smooth="yes"/>
			<point x="473" y="203"/>
			<point x="549" y="285"/>
			<point x="549" y="397" type="curve" smooth="yes"/>
			<point x="549" y="529"/>
			<point x="473" y="590"/>
			<point x="337" y="590" type="curve" smooth="yes"/>
			<point x="52" y="590" type="line"/>
			<point x="52" y="0" type="line"/>
			<point x="152" y="0" type="line"/>
		</contour>
		<contour>
			<point x="152" y="298" type="line"/>
			<point x="152" y="495" type="line"/>
			<point x="335" y="495" type="line" smooth="yes"/>
			<point x="403" y="495"/>
			<point x="449" y="469"/>
			<point x="449" y="398" type="curve" smooth="yes"/>
			<point x="449" y="327"/>
			<point x="408" y="298"/>
			<point x="337" y="298" type="curve" smooth="yes"/>
		</contour>
	</outline>
</glyph>
<glyph name="Q" format="2">
	<advance width="600"/>
	<unicode hex="0051"/>
	<outline>
		<contour>
			<point x="285" y="591" type="curve" smooth="yes"/>
			<point x="79" y="591"/>
			<point x="23" y="501"/>
			<point x="23" y="315" type="curve" smooth="yes"/>
			<point x="23" y="91"/>
			<point x="79" y="-1"/>
			<point x="285" y="-1" type="curve" smooth="yes"/>
			<point x="491" y="-1"/>
			<point x="549" y="91"/>
			<point x="549" y="315" type="curve" smooth="yes"/>
			<point x="549" y="501"/>
			<point x="491" y="591"/>
		</contour>
		<contour>
			<point x="285" y="99" type="curve" smooth="yes"/>
			<point x="129" y="99"/>
			<point x="123" y="151"/>
			<point x="123" y="314" type="curve" smooth="yes"/>
			<point x="123" y="435"/>
			<point x="129" y="491"/>
			<point x="285" y="491" type="curve" smooth="yes"/>
			<point x="441" y="491"/>
			<point x="449" y="435"/>
			<point x="449" y="314" type="curve" smooth="yes"/>
			<point x="449" y="151"/>
			<point x="441" y="99"/>
		</contour>
		<contour>
			<point x="275" y="230" type="line"/>
			<point x="519" y="-13" type="line"/>
			<point x="578" y="47" type="line"/>
			<point x="334" y="290" type="line"/>
		</contour>
	</outline>
</glyph>
<glyph name="R" format="2">
	<advance width="600"/>
	<unicode hex="0052"/>
	<guideline x="520" y="259" angle="270"/>
	<guideline x="648" y="628" angle="0"/>
	<outline>
		<contour>
			<point x="428" y="0" type="line"/>
			<point x="548" y="0" type="line"/>
			<point x="380" y="223" type="line"/>
			<point x="478" y="238"/>
			<point x="534" y="293"/>
			<point x="534" y="405" type="curve" smooth="yes"/>
			<point x="534" y="537"/>
			<point x="458" y="590"/>
			<point x="322" y="590" type="curve" smooth="yes"/>
			<point x="51" y="590" type="line"/>
			<point x="51" y="0" type="line"/>
			<point x="151" y="0" type="line"/>
			<point x="151" y="219" type="line"/>
			<point x="263" y="219" type="line"/>
		</contour>
		<contour>
			<point x="151" y="314" type="line"/>
			<point x="151" y="495" type="line"/>
			<point x="320" y="495" type="line" smooth="yes"/>
			<point x="388" y="495"/>
			<point x="434" y="477"/>
			<point x="434" y="406" type="curve" smooth="yes"/>
			<point x="434" y="335"/>
			<point x="393" y="314"/>
			<point x="322" y="314" type="curve" smooth="yes"/>
		</contour>
	</outline>
</glyph>
<glyph name="T" format="2">
	<advance width="600"/>
	<unicode hex="0054"/>
	<outline>
		<contour>
			<point x="564" y="495" type="line"/>
			<point x="564" y="590" type="line"/>
			<point x="37" y="590" type="line"/>
			<point x="37" y="495" type="line"/>
			<point x="251" y="495" type="line"/>
			<point x="251" y="0" type="line"/>
			<point x="351" y="0" type="line"/>
			<point x="351" y="495" type="line"/>
		</contour>
	</outline>
</glyph>
<glyph name="U" format="2">
	<advance width="600"/>
	<unicode hex="0055"/>
	<anchor x="300" y="602" name="top"/>
	<outline>
		<contour>
			<point x="449" y="590" type="line"/>
			<point x="449" y="228" type="line" smooth="yes"/>
			<point x="449" y="140"/>
			<point x="423" y="95"/>
			<point x="300" y="95" type="curve" smooth="yes"/>
			<point x="181" y="95"/>
			<point x="151" y="140"/>
			<point x="151" y="228" type="curve" smooth="yes"/>
			<point x="151" y="590" type="line"/>
			<point x="51" y="590" type="line"/>
			<point x="51" y="228" type="line" smooth="yes"/>
			<point x="51" y="59"/>
			<point x="114" y="0"/>
			<point x="300" y="0" type="curve" smooth="yes"/>
			<point x="486" y="0"/>
			<point x="549" y="59"/>
			<point x="549" y="228" type="curve" smooth="yes"/>
			<point x="549" y="590" type="line"/>
		</contour>
	</outline>
</glyph>
<glyph name="V" format="2">
	<advance width="600"/>
	<unicode hex="0056"/>
	<outline>
		<contour>
			<point x="560" y="590" type="line"/>
			<point x="457" y="590" type="line"/>
			<point x="317" y="96" type="line"/>
			<point x="283" y="96" type="line"/>
			<point x="142" y="590" type="line"/>
			<point x="39" y="590" type="line"/>
			<point x="205" y="1" type="line"/>
			<point x="395" y="1" type="line"/>
		</contour>
	</outline>
</glyph>
<glyph name="W" format="2">
	<advance width="600"/>
	<unicode hex="0057"/>
	<anchor x="300" y="592" name="top"/>
	<outline>
		<contour>
			<point x="568" y="590" type="line"/>
			<point x="471" y="590" type="line"/>
			<point x="407" y="125" type="line"/>
			<point x="353" y="358" type="line"/>
			<point x="247" y="358" type="line"/>
			<point x="194" y="125" type="line"/>
			<point x="130" y="590" type="line"/>
			<point x="33" y="590" type="line"/>
			<point x="119" y="0" type="line"/>
			<point x="251" y="0" type="line"/>
			<point x="301" y="245" type="line"/>
			<point x="351" y="0" type="line"/>
			<point x="483" y="0" type="line"/>
		</contour>
	</outline>
</glyph>
<glyph name="bracketright" format="2">
	<advance width="600"/>
	<unicode hex="005D"/>
	<outline>
		<contour>
			<point x="172" y="-173" type="line"/>
			<point x="428" y="-173" type="line"/>
			<point x="428" y="590" type="line"/>
			<point x="172" y="590" type="line"/>
			<point x="172" y="505" type="line"/>
			<point x="338" y="505" type="line"/>
			<point x="338" y="-88" type="line"/>
			<point x="172" y="-88" type="line"/>
		</contour>
	</outline>
</glyph>
<glyph name="a" format="2">
	<advance width="600"/>
	<unicode hex="0061"/>
	<anchor x="300" y="443" name="top"/>
	<outline>
		<contour>
			<point x="546" y="293" type="line" smooth="yes"/>
			<point x="546" y="394"/>
			<point x="494" y="434"/>
			<point x="304" y="434" type="curve" smooth="yes"/>
			<point x="136" y="434"/>
			<point x="62" y="382"/>
			<point x="62" y="272" type="curve"/>
			<point x="152" y="272" type="line"/>
			<point x="155" y="346"/>
			<point x="180" y="350"/>
			<point x="304" y="351" type="curve" smooth="yes"/>
			<point x="445" y="352"/>
			<point x="455" y="322"/>
			<point x="456" y="273" type="curve"/>
			<point x="246" y="257" type="line"/>
			<point x="101" y="245"/>
			<point x="54" y="208"/>
			<point x="54" y="124" type="curve" smooth="yes"/>
			<point x="54" y="37"/>
			<point x="107" y="0"/>
			<point x="204" y="-2" type="curve" smooth="yes"/>
			<point x="258" y="-3"/>
			<point x="319" y="3"/>
			<point x="403" y="41" type="curve" smooth="yes"/>
			<point x="456" y="65" type="line"/>
			<point x="456" y="0" type="line"/>
			<point x="546" y="0" type="line"/>
		</contour>
		<contour>
			<point x="456" y="195" type="line"/>
			<point x="456" y="148" type="line"/>
			<point x="347" y="89"/>
			<point x="285" y="77"/>
			<point x="225" y="77" type="curve" smooth="yes"/>
			<point x="159" y="77"/>
			<point x="144" y="92"/>
			<point x="144" y="126" type="curve" smooth="yes"/>
			<point x="144" y="156"/>
			<point x="170" y="173"/>
			<point x="269" y="182" type="curve"/>
		</contour>
	</outline>
</glyph>
<glyph name="d" format="2">
	<advance width="600"/>
	<unicode hex="0064"/>
	<outline>
		<contour>
			<point x="449" y="277" type="curve"/>
			<point x="449" y="155" type="line"/>
			<point x="353" y="86"/>
			<point x="322" y="69"/>
			<point x="258" y="69" type="curve" smooth="yes"/>
			<point x="176" y="69"/>
			<point x="151" y="107"/>
			<point x="151" y="216" type="curve"/>
			<point x="151" y="325"/>
			<point x="176" y="363"/>
			<point x="258" y="363" type="curve" smooth="yes"/>
			<point x="322" y="363"/>
			<point x="353" y="346"/>
		</contour>
		<contour>
			<point x="449" y="378" type="line"/>
			<point x="372" y="426"/>
			<point x="338" y="444"/>
			<point x="255" y="444" type="curve" smooth="yes"/>
			<point x="120" y="444"/>
			<point x="61" y="396"/>
			<point x="61" y="216" type="curve"/>
			<point x="61" y="36"/>
			<point x="120" y="-12"/>
			<point x="255" y="-12" type="curve" smooth="yes"/>
			<point x="338" y="-12"/>
			<point x="372" y="6"/>
			<point x="449" y="54" type="curve"/>
			<point x="449" y="0" type="line"/>
			<point x="539" y="0" type="line"/>
			<point x="539" y="603" type="line"/>
			<point x="449" y="603" type="line"/>
		</contour>
	</outline>
</glyph>
<glyph name="e" format="2">
	<advance width="627"/>
	<unicode hex="0065"/>
	<anchor x="310" y="443" name="top"/>
	<outline>
		<contour>
			<point x="555" y="176" type="line"/>
			<point x="555" y="261" type="line"/>
			<point x="546" y="393"/>
			<point x="490" y="443"/>
			<point x="314" y="443" type="curve" smooth="yes"/>
			<point x="118" y="443"/>
			<point x="72" y="381"/>
			<point x="72" y="215" type="curve" smooth="yes"/>
			<point x="72" y="49"/>
			<point x="118" y="-13"/>
			<point x="314" y="-13" type="curve" smooth="yes"/>
			<point x="474" y="-13"/>
			<point x="534" y="28"/>
			<point x="551" y="134" type="curve"/>
			<point x="459" y="134" type="line"/>
			<point x="445" y="87"/>
			<point x="408" y="72"/>
			<point x="314" y="72" type="curve" smooth="yes"/>
			<point x="195" y="72"/>
			<point x="168" y="96"/>
			<point x="163" y="176" type="curve"/>
		</contour>
		<contour>
			<point x="465" y="261" type="curve"/>
			<point x="164" y="261" type="line"/>
			<point x="170" y="335"/>
			<point x="199" y="358"/>
			<point x="314" y="358" type="curve" smooth="yes"/>
			<point x="429" y="358"/>
			<point x="459" y="335"/>
		</contour>
	</outline>
</glyph>
<glyph name="f" format="2">
	<advance width="600"/>
	<unicode hex="0066"/>
	<outline>
		<contour>
			<point x="527" y="463" type="curve"/>
			<point x="559" y="542" type="line"/>
			<point x="559" y="542"/>
			<point x="453" y="590"/>
			<point x="370" y="590" type="curve" smooth="yes"/>
			<point x="288" y="590"/>
			<point x="205" y="547"/>
			<point x="183" y="430" type="curve"/>
			<point x="41" y="430" type="line"/>
			<point x="41" y="345" type="line"/>
			<point x="178" y="345" type="line"/>
			<point x="178" y="-1" type="line"/>
			<point x="268" y="-1" type="line"/>
			<point x="268" y="345" type="line"/>
			<point x="531" y="345" type="line"/>
			<point x="531" y="430" type="line"/>
			<point x="277" y="430" type="line"/>
			<point x="292" y="477"/>
			<point x="327" y="502"/>
			<point x="384" y="502" type="curve" smooth="yes"/>
			<point x="439" y="502"/>
			<point x="526" y="465"/>
		</contour>
	</outline>
</glyph>
<glyph name="h" format="2">
	<advance width="600"/>
	<unicode hex="0068"/>
	<outline>
		<contour>
			<point x="436" y="272" type="curve"/>
			<point x="436" y="0" type="line"/>
			<point x="526" y="0" type="line"/>
			<point x="526" y="315" type="line"/>
			<point x="525" y="402"/>
			<point x="476" y="442"/>
			<point x="376" y="442" type="curve"/>
			<point x="287" y="442"/>
			<point x="235" y="419"/>
			<point x="162" y="325" type="curve"/>
			<point x="163" y="590" type="line"/>
			<point x="73" y="590" type="line"/>
			<point x="73" y="0" type="line"/>
			<point x="163" y="0" type="line"/>
			<point x="163" y="210" type="line"/>
			<point x="208" y="264" type="line" smooth="yes"/>
			<point x="273" y="342"/>
			<point x="307" y="357"/>
			<point x="365" y="357" type="curve"/>
			<point x="419" y="357"/>
			<point x="436" y="331"/>
		</contour>
	</outline>
</glyph>
<glyph name="i" format="2">
	<advance width="600"/>
	<unicode hex="0069"/>
	<outline>
		<contour>
			<point x="355" y="517" type="line"/>
			<point x="355" y="665" type="line"/>
			<point x="207" y="665" type="line"/>
			<point x="207" y="517" type="line"/>
		</contour>
		<contour>
			<point x="515" y="85" type="line"/>
			<point x="348" y="85" type="line"/>
			<point x="348" y="430" type="line"/>
			<point x="84" y="430" type="line"/>
			<point x="84" y="345" type="line"/>
			<point x="258" y="345" type="line"/>
			<point x="258" y="85" type="line"/>
			<point x="84" y="85" type="line"/>
			<point x="84" y="0" type="line"/>
			<point x="515" y="0" type="line"/>
		</contour>
	</outline>
</glyph>
<glyph name="j" format="2">
	<advance width="600"/>
	<unicode hex="006A"/>
	<outline>
		<contour>
			<point x="497" y="644" type="line"/>
			<point x="349" y="644" type="line"/>
			<point x="349" y="496" type="line"/>
			<point x="497" y="496" type="line"/>
		</contour>
		<contour>
			<point x="164" y="18" type="curve"/>
			<point x="103" y="-41" type="line"/>
			<point x="172" y="-111"/>
			<point x="252" y="-173"/>
			<point x="331" y="-173" type="curve" smooth="yes"/>
			<point x="450" y="-173"/>
			<point x="497" y="-109"/>
			<point x="497" y="-36" type="curve" smooth="yes"/>
			<point x="496" y="429" type="line"/>
			<point x="165" y="429" type="line"/>
			<point x="165" y="344" type="line"/>
			<point x="406" y="344" type="line"/>
			<point x="406" y="-2" type="line" smooth="yes"/>
			<point x="406" y="-70"/>
			<point x="385" y="-88"/>
			<point x="331" y="-88" type="curve" smooth="yes"/>
			<point x="286" y="-88"/>
			<point x="227" y="-46"/>
		</contour>
	</outline>
</glyph>
<glyph name="m" format="2">
	<advance width="600"/>
	<unicode hex="006D"/>
	<outline>
		<contour>
			<point x="145" y="378" type="curve"/>
			<point x="145" y="430" type="line"/>
			<point x="55" y="430" type="line"/>
			<point x="55" y="0" type="line"/>
			<point x="145" y="0" type="line"/>
			<point x="145" y="288" type="line"/>
			<point x="186" y="329"/>
			<point x="218" y="358"/>
			<point x="233" y="358" type="curve" smooth="yes"/>
			<point x="249" y="358"/>
			<point x="260" y="344"/>
			<point x="260" y="328" type="curve" smooth="yes"/>
			<point x="260" y="0" type="line"/>
			<point x="345" y="0" type="line"/>
			<point x="345" y="288" type="line"/>
			<point x="386" y="329"/>
			<point x="418" y="358"/>
			<point x="433" y="358" type="curve" smooth="yes"/>
			<point x="449" y="358"/>
			<point x="455" y="344"/>
			<point x="455" y="328" type="curve" smooth="yes"/>
			<point x="455" y="0" type="line"/>
			<point x="545" y="0" type="line"/>
			<point x="545" y="387" type="line" smooth="yes"/>
			<point x="545" y="425"/>
			<point x="513" y="442"/>
			<point x="475" y="442" type="curve" smooth="yes"/>
			<point x="434" y="442"/>
			<point x="414" y="434"/>
			<point x="345" y="378" type="curve"/>
			<point x="345" y="416"/>
			<point x="313" y="442"/>
			<point x="275" y="442" type="curve" smooth="yes"/>
			<point x="234" y="442"/>
			<point x="204" y="434"/>
		</contour>
	</outline>
</glyph>
<glyph name="p" format="2">
	<advance width="600"/>
	<unicode hex="0070"/>
	<guideline x="725" y="463" angle="0"/>
	<guideline x="593" y="-13" angle="0"/>
	<outline>
		<contour>
			<point x="151" y="153" type="curve"/>
			<point x="151" y="275" type="line"/>
			<point x="247" y="344"/>
			<point x="278" y="361"/>
			<point x="342" y="361" type="curve" smooth="yes"/>
			<point x="424" y="361"/>
			<point x="449" y="323"/>
			<point x="449" y="214" type="curve"/>
			<point x="449" y="105"/>
			<point x="424" y="67"/>
			<point x="342" y="67" type="curve" smooth="yes"/>
			<point x="278" y="67"/>
			<point x="247" y="84"/>
		</contour>
		<contour>
			<point x="151" y="52" type="line"/>
			<point x="228" y="4"/>
			<point x="262" y="-14"/>
			<point x="345" y="-14" type="curve" smooth="yes"/>
			<point x="480" y="-14"/>
			<point x="539" y="34"/>
			<point x="539" y="214" type="curve"/>
			<point x="539" y="394"/>
			<point x="480" y="442"/>
			<point x="345" y="442" type="curve" smooth="yes"/>
			<point x="262" y="442"/>
			<point x="228" y="424"/>
			<point x="151" y="376" type="curve"/>
			<point x="151" y="430" type="line"/>
			<point x="61" y="430" type="line"/>
			<point x="61" y="-173" type="line"/>
			<point x="151" y="-173" type="line"/>
		</contour>
	</outline>
</glyph>
<glyph name="q" format="2">
	<advance width="600"/>
	<unicode hex="0071"/>
	<outline>
		<contour>
			<point x="449" y="153" type="line"/>
			<point x="353" y="84"/>
			<point x="322" y="67"/>
			<point x="258" y="67" type="curve" smooth="yes"/>
			<point x="176" y="67"/>
			<point x="151" y="105"/>
			<point x="151" y="214" type="curve"/>
			<point x="151" y="323"/>
			<point x="176" y="361"/>
			<point x="258" y="361" type="curve" smooth="yes"/>
			<point x="322" y="361"/>
			<point x="353" y="344"/>
			<point x="449" y="275" type="curve"/>
		</contour>
		<contour>
			<point x="449" y="52" type="curve"/>
			<point x="449" y="-173" type="line"/>
			<point x="539" y="-173" type="line"/>
			<point x="539" y="430" type="line"/>
			<point x="449" y="430" type="line"/>
			<point x="449" y="376" type="line"/>
			<point x="372" y="424"/>
			<point x="338" y="442"/>
			<point x="255" y="442" type="curve" smooth="yes"/>
			<point x="120" y="442"/>
			<point x="61" y="394"/>
			<point x="61" y="214" type="curve"/>
			<point x="61" y="34"/>
			<point x="120" y="-14"/>
			<point x="255" y="-14" type="curve" smooth="yes"/>
			<point x="338" y="-14"/>
			<point x="372" y="4"/>
		</contour>
	</outline>
</glyph>
<glyph name="s" format="2">
	<advance width="600"/>
	<unicode hex="0073"/>
	<outline>
		<contour>
			<point x="298" y="255" type="curve" smooth="yes"/>
			<point x="209" y="257"/>
			<point x="149" y="255"/>
			<point x="149" y="307" type="curve" smooth="yes"/>
			<point x="149" y="362"/>
			<point x="195" y="361"/>
			<point x="301" y="360" type="curve" smooth="yes"/>
			<point x="411" y="359"/>
			<point x="450" y="355"/>
			<point x="453" y="281" type="curve"/>
			<point x="543" y="281" type="line"/>
			<point x="543" y="391"/>
			<point x="469" y="443"/>
			<point x="301" y="443" type="curve" smooth="yes"/>
			<point x="111" y="443"/>
			<point x="59" y="408"/>
			<point x="59" y="307" type="curve" smooth="yes"/>
			<point x="59" y="206"/>
			<point x="126" y="177"/>
			<point x="297" y="175" type="curve" smooth="yes"/>
			<point x="409" y="174"/>
			<point x="457" y="169"/>
			<point x="457" y="128" type="curve" smooth="yes"/>
			<point x="457" y="127" type="line" smooth="yes"/>
			<point x="457" y="79"/>
			<point x="424" y="70"/>
			<point x="300" y="71" type="curve" smooth="yes"/>
			<point x="176" y="72"/>
			<point x="151" y="76"/>
			<point x="148" y="150" type="curve"/>
			<point x="58" y="150" type="line"/>
			<point x="58" y="27"/>
			<point x="132" y="-12"/>
			<point x="300" y="-12" type="curve" smooth="yes"/>
			<point x="486" y="-12"/>
			<point x="542" y="32"/>
			<point x="542" y="128" type="curve" smooth="yes"/>
			<point x="542" y="232"/>
			<point x="458" y="252"/>
		</contour>
	</outline>
</glyph>
<glyph name="v" format="2">
	<advance width="600"/>
	<unicode hex="0076"/>
	<outline>
		<contour>
			<point x="546" y="430" type="line"/>
			<point x="451" y="430" type="line"/>
			<point x="315" y="86" type="line"/>
			<point x="280" y="86" type="line"/>
			<point x="149" y="430" type="line"/>
			<point x="54" y="430" type="line"/>
			<point x="217" y="1" type="line"/>
			<point x="377" y="1" type="line"/>
		</contour>
	</outline>
</glyph>
<glyph name="asciitilde" format="2">
	<advance width="600"/>
	<unicode hex="007E"/>
	<outline>
		<contour>
			<point x="523" y="287" type="curve"/>
			<point x="445" y="313" type="line"/>
			<point x="428" y="250"/>
			<point x="403" y="250"/>
			<point x="308" y="290" type="curve" smooth="yes"/>
			<point x="177" y="345"/>
			<point x="112" y="310"/>
			<point x="76" y="206" type="curve"/>
			<point x="155" y="180" type="line"/>
			<point x="179" y="244"/>
			<point x="207" y="244"/>
			<point x="311" y="202" type="curve" smooth="yes"/>
			<point x="427" y="155"/>
			<point x="490" y="181"/>
		</contour>
	</outline>
</glyph>
<glyph name="exclamdown" format="2">
	<advance width="600"/>
	<unicode hex="00A1"/>
	<outline>
		<contour>
			<point x="362" y="150" type="line"/>
			<point x="341" y="384" type="line"/>
			<point x="261" y="384" type="line"/>
			<point x="241" y="150" type="line"/>
			<point x="241" y="1" type="line"/>
			<point x="362" y="1" type="line"/>
		</contour>
		<contour>
			<point x="374" y="455" type="line"/>
			<point x="374" y="603" type="line"/>
			<point x="226" y="603" type="line"/>
			<point x="226" y="455" type="line"/>
		</contour>
	</outline>
</glyph>
<glyph name="sterling" format="2">
	<advance width="600"/>
	<unicode hex="00A3"/>
	<outline>
		<contour>
			<point x="277" y="272" type="curve"/>
			<point x="437" y="272" type="line"/>
			<point x="437" y="357" type="line"/>
			<point x="262" y="357" type="line"/>
			<point x="235" y="465"/>
			<point x="266" y="518"/>
			<point x="349" y="518" type="curve" smooth="yes"/>
			<point x="436" y="518"/>
			<point x="463" y="507"/>
			<point x="463" y="416" type="curve"/>
			<point x="553" y="416" type="line"/>
			<point x="553" y="563"/>
			<point x="494" y="603"/>
			<point x="353" y="603" type="curve" smooth="yes"/>
			<point x="166" y="603"/>
			<point x="145" y="467"/>
			<point x="172" y="357" type="curve"/>
			<point x="47" y="357" type="line"/>
			<point x="47" y="272" type="line"/>
			<point x="185" y="272" type="line"/>
			<point x="182" y="202"/>
			<point x="126" y="148"/>
			<point x="93" y="85" type="curve" smooth="yes"/>
			<point x="93" y="0" type="line"/>
			<point x="553" y="0" type="line"/>
			<point x="553" y="85" type="line"/>
			<point x="199" y="85" type="line"/>
			<point x="230" y="148"/>
			<point x="275" y="202"/>
		</contour>
	</outline>
</glyph>
<glyph name="currency" format="2">
	<advance width="600"/>
	<unicode hex="00A4"/>
	<outline>
		<contour>
			<point x="436" y="484" type="curve"/>
			<point x="479" y="527" type="line"/>
			<point x="416" y="590" type="line"/>
			<point x="373" y="548" type="line"/>
			<point x="352" y="558"/>
			<point x="328" y="564"/>
			<point x="300" y="564" type="curve" smooth="yes"/>
			<point x="271" y="564"/>
			<point x="247" y="558"/>
			<point x="226" y="547" type="curve"/>
			<point x="183" y="590" type="line"/>
			<point x="121" y="527" type="line"/>
			<point x="164" y="484" type="line"/>
			<point x="153" y="462"/>
			<point x="147" y="437"/>
			<point x="147" y="412" type="curve" smooth="yes"/>
			<point x="147" y="386"/>
			<point x="153" y="361"/>
			<point x="164" y="338" type="curve"/>
			<point x="121" y="295" type="line"/>
			<point x="183" y="232" type="line"/>
			<point x="226" y="275" type="line"/>
			<point x="247" y="265"/>
			<point x="272" y="259"/>
			<point x="300" y="259" type="curve" smooth="yes"/>
			<point x="328" y="259"/>
			<point x="352" y="265"/>
			<point x="372" y="275" type="curve"/>
			<point x="416" y="232" type="line"/>
			<point x="479" y="295" type="line"/>
			<point x="435" y="338" type="line"/>
			<point x="446" y="361"/>
			<point x="452" y="386"/>
			<point x="452" y="412" type="curve" smooth="yes"/>
			<point x="452" y="437"/>
			<point x="446" y="462"/>
		</contour>
		<contour>
			<point x="221" y="412" type="curve" smooth="yes"/>
			<point x="221" y="456"/>
			<point x="255" y="490"/>
			<point x="300" y="490" type="curve" smooth="yes"/>
			<point x="344" y="490"/>
			<point x="378" y="456"/>
			<point x="378" y="412" type="curve" smooth="yes"/>
			<point x="378" y="367"/>
			<point x="344" y="333"/>
			<point x="300" y="333" type="curve" smooth="yes"/>
			<point x="255" y="333"/>
			<point x="221" y="367"/>
		</contour>
	</outline>
</glyph>
<glyph name="yen" format="2">
	<advance width="600"/>
	<unicode hex="00A5"/>
	<outline>
		<contour>
			<point x="439" y="375" type="line"/>
			<point x="564" y="590" type="line"/>
			<point x="454" y="590" type="line"/>
			<point x="300" y="326" type="line"/>
			<point x="142" y="590" type="line"/>
			<point x="36" y="590" type="line"/>
			<point x="161" y="375" type="line"/>
			<point x="81" y="375" type="line"/>
			<point x="81" y="290" type="line"/>
			<point x="210" y="290" type="line"/>
			<point x="250" y="221" type="line"/>
			<point x="81" y="221" type="line"/>
			<point x="81" y="136" type="line"/>
			<point x="250" y="136" type="line"/>
			<point x="250" y="0" type="line"/>
			<point x="350" y="0" type="line"/>
			<point x="350" y="136" type="line"/>
			<point x="521" y="136" type="line"/>
			<point x="521" y="221" type="line"/>
			<point x="350" y="221" type="line"/>
			<point x="390" y="290" type="line"/>
			<point x="521" y="290" type="line"/>
			<point x="521" y="375" type="line"/>
		</contour>
	</outline>
</glyph>
<glyph name="section" format="2">
	<advance width="600"/>
	<unicode hex="00A7"/>
	<outline>
		<contour>
			<point x="446" y="416" type="curve"/>
			<point x="546" y="416" type="line"/>
			<point x="546" y="547"/>
			<point x="473" y="603"/>
			<point x="292" y="603" type="curve" smooth="yes"/>
			<point x="100" y="603"/>
			<point x="44" y="561"/>
			<point x="44" y="430" type="curve" smooth="yes"/>
			<point x="44" y="392"/>
			<point x="57" y="354"/>
			<point x="70" y="333" type="curve"/>
			<point x="12" y="180"/>
			<point x="105" y="130"/>
			<point x="307" y="84" type="curve" smooth="yes"/>
			<point x="431" y="56"/>
			<point x="466" y="54"/>
			<point x="466" y="7" type="curve" smooth="yes"/>
			<point x="466" y="-77"/>
			<point x="415" y="-83"/>
			<point x="304" y="-83" type="curve" smooth="yes"/>
			<point x="218" y="-83"/>
			<point x="157" y="-67"/>
			<point x="157" y="2" type="curve"/>
			<point x="57" y="2" type="line"/>
			<point x="57" y="-120"/>
			<point x="135" y="-173"/>
			<point x="304" y="-173" type="curve" smooth="yes"/>
			<point x="493" y="-173"/>
			<point x="557" y="-128"/>
			<point x="556" y="7" type="curve" smooth="yes"/>
			<point x="556" y="39"/>
			<point x="550" y="76"/>
			<point x="538" y="99" type="curve"/>
			<point x="581" y="259"/>
			<point x="486" y="303"/>
			<point x="307" y="343" type="curve" smooth="yes"/>
			<point x="200" y="367"/>
			<point x="134" y="373"/>
			<point x="134" y="433" type="curve" smooth="yes"/>
			<point x="134" y="499"/>
			<point x="157" y="513"/>
			<point x="292" y="513" type="curve" smooth="yes"/>
			<point x="393" y="513"/>
			<point x="446" y="493"/>
		</contour>
		<contour>
			<point x="132" y="222"/>
			<point x="152" y="288" type="curve"/>
			<point x="205" y="279"/>
			<point x="259" y="269"/>
			<point x="307" y="255" type="curve" smooth="yes"/>
			<point x="396" y="229"/>
			<point x="469" y="209"/>
			<point x="454" y="137" type="curve"/>
			<point x="402" y="149"/>
			<point x="368" y="156"/>
			<point x="307" y="172" type="curve" smooth="yes"/>
			<point x="196" y="202"/>
		</contour>
	</outline>
</glyph>
<glyph name="copyright" format="2">
	<advance width="600"/>
	<unicode hex="00A9"/>
	<outline>
		<contour>
			<point x="302" y="246" type="curve" smooth="yes"/>
			<point x="182" y="246"/>
			<point x="165" y="293"/>
			<point x="165" y="397" type="curve" smooth="yes"/>
			<point x="165" y="502"/>
			<point x="182" y="554"/>
			<point x="302" y="554" type="curve" smooth="yes"/>
			<point x="420" y="554"/>
			<point x="434" y="502"/>
			<point x="434" y="397" type="curve" smooth="yes"/>
			<point x="434" y="291"/>
			<point x="420" y="246"/>
		</contour>
		<contour>
			<point x="302" y="210" type="curve" smooth="yes"/>
			<point x="462" y="210"/>
			<point x="472" y="291"/>
			<point x="472" y="397" type="curve" smooth="yes"/>
			<point x="472" y="502"/>
			<point x="462" y="590"/>
			<point x="302" y="590" type="curve" smooth="yes"/>
			<point x="142" y="590"/>
			<point x="128" y="502"/>
			<point x="128" y="397" type="curve" smooth="yes"/>
			<point x="128" y="293"/>
			<point x="142" y="210"/>
		</contour>
		<contour>
			<point x="396" y="363" type="curve"/>
			<point x="360" y="363" type="line"/>
			<point x="360" y="338"/>
			<point x="343" y="322"/>
			<point x="301" y="322" type="curve" smooth="yes"/>
			<point x="241" y="322"/>
			<point x="238" y="342"/>
			<point x="238" y="406" type="curve" smooth="yes"/>
			<point x="238" y="448"/>
			<point x="241" y="470"/>
			<point x="301" y="470" type="curve" smooth="yes"/>
			<point x="341" y="470"/>
			<point x="360" y="454"/>
			<point x="360" y="430" type="curve"/>
			<point x="397" y="430" type="line"/>
			<point x="397" y="483"/>
			<point x="363" y="507"/>
			<point x="301" y="507" type="curve" smooth="yes"/>
			<point x="222" y="507"/>
			<point x="201" y="474"/>
			<point x="201" y="406" type="curve" smooth="yes"/>
			<point x="201" y="319"/>
			<point x="222" y="285"/>
			<point x="301" y="285" type="curve" smooth="yes"/>
			<point x="363" y="285"/>
			<point x="396" y="310"/>
		</contour>
	</outline>
</glyph>
<glyph name="guillemotleft" format="2">
	<advance width="600"/>
	<unicode hex="00AB"/>
	<outline>
		<contour>
			<point x="200" y="270" type="line"/>
			<point x="320" y="430" type="line"/>
			<point x="211" y="430" type="line"/>
			<point x="91" y="270" type="line"/>
			<point x="211" y="110" type="line"/>
			<point x="320" y="110" type="line"/>
		</contour>
		<contour>
			<point x="390" y="270" type="line"/>
			<point x="510" y="430" type="line"/>
			<point x="401" y="430" type="line"/>
			<point x="281" y="270" type="line"/>
			<point x="401" y="110" type="line"/>
			<point x="510" y="110" type="line"/>
		</contour>
	</outline>
</glyph>
<glyph name="degree" format="2">
	<advance width="600"/>
	<unicode hex="00B0"/>
	<outline>
		<contour>
			<point x="300" y="287" type="curve"/>
			<point x="398" y="287"/>
			<point x="452" y="361"/>
			<point x="452" y="440" type="curve"/>
			<point x="452" y="518"/>
			<point x="398" y="592"/>
			<point x="300" y="592" type="curve"/>
			<point x="201" y="592"/>
			<point x="147" y="518"/>
			<point x="147" y="440" type="curve"/>
			<point x="147" y="361"/>
			<point x="201" y="287"/>
		</contour>
		<contour>
			<point x="300" y="361" type="curve"/>
			<point x="255" y="361"/>
			<point x="221" y="395"/>
			<point x="221" y="440" type="curve"/>
			<point x="221" y="484"/>
			<point x="255" y="518"/>
			<point x="300" y="518" type="curve"/>
			<point x="344" y="518"/>
			<point x="378" y="484"/>
			<point x="378" y="440" type="curve"/>
			<point x="378" y="395"/>
			<point x="344" y="361"/>
		</contour>
	</outline>
</glyph>
<glyph name="plusminus" format="2">
	<advance width="600"/>
	<unicode hex="00B1"/>
	<outline>
		<contour>
			<point x="50" y="379" type="line"/>
			<point x="50" y="294" type="line"/>
			<point x="550" y="294" type="line"/>
			<point x="550" y="379" type="line"/>
		</contour>
		<contour>
			<point x="343" y="537" type="line"/>
			<point x="253" y="537" type="line"/>
			<point x="253" y="137" type="line"/>
			<point x="343" y="137" type="line"/>
		</contour>
		<contour>
			<point x="50" y="85" type="line"/>
			<point x="50" y="0" type="line"/>
			<point x="550" y="0" type="line"/>
			<point x="550" y="85" type="line"/>
		</contour>
	</outline>
</glyph>
<glyph name="guillemotright" format="2">
	<advance width="600"/>
	<unicode hex="00BB"/>
	<outline>
		<contour>
			<point x="401" y="270" type="line"/>
			<point x="281" y="110" type="line"/>
			<point x="390" y="110" type="line"/>
			<point x="510" y="270" type="line"/>
			<point x="390" y="430" type="line"/>
			<point x="281" y="430" type="line"/>
		</contour>
		<contour>
			<point x="211" y="270" type="line"/>
			<point x="91" y="110" type="line"/>
			<point x="200" y="110" type="line"/>
			<point x="320" y="270" type="line"/>
			<point x="200" y="430" type="line"/>
			<point x="91" y="430" type="line"/>
		</contour>
	</outline>
</glyph>
<glyph name="divide" format="2">
	<advance width="600"/>
	<unicode hex="00F7"/>
	<outline>
		<contour>
			<point x="372" y="361" type="line"/>
			<point x="372" y="509" type="line"/>
			<point x="224" y="509" type="line"/>
			<point x="224" y="361" type="line"/>
		</contour>
		<contour>
			<point x="372" y="0" type="line"/>
			<point x="372" y="148" type="line"/>
			<point x="224" y="148" type="line"/>
			<point x="224" y="0" type="line"/>
		</contour>
		<contour>
			<point x="43" y="292" type="line"/>
			<point x="43" y="207" type="line"/>
			<point x="558" y="207" type="line"/>
			<point x="558" y="292" type="line"/>
		</contour>
	</outline>
</glyph>
<glyph name="lslash" format="2">
	<advance width="600"/>
	<unicode hex="0142"/>
	<outline>
		<contour>
			<point x="197" y="227" type="line"/>
			<point x="435" y="311" type="line"/>
			<point x="406" y="392" type="line"/>
			<point x="168" y="308" type="line"/>
		</contour>
		<component base="l"/>
	</outline>
</glyph>
<glyph name="oe" format="2">
	<advance width="600"/>
	<unicode hex="0153"/>
	<outline>
		<contour>
			<point x="601" y="176" type="line"/>
			<point x="601" y="261" type="line"/>
			<point x="592" y="393"/>
			<point x="531" y="443"/>
			<point x="435" y="443" type="curve" smooth="yes"/>
			<point x="370.385" y="443"/>
			<point x="327" y="420"/>
			<point x="298" y="390" type="curve"/>
			<point x="273" y="420"/>
			<point x="224" y="443"/>
			<point x="170" y="443" type="curve" smooth="yes"/>
			<point x="62" y="443"/>
			<point x="0" y="385"/>
			<point x="0" y="215" type="curve" smooth="yes"/>
			<point x="0" y="45"/>
			<point x="62" y="-13"/>
			<point x="170" y="-13" type="curve" smooth="yes"/>
			<point x="225" y="-13"/>
			<point x="273" y="10"/>
			<point x="298" y="40" type="curve"/>
			<point x="327" y="10"/>
			<point x="370.385" y="-13"/>
			<point x="435" y="-13" type="curve" smooth="yes"/>
			<point x="515" y="-13"/>
			<point x="575" y="28"/>
			<point x="597" y="134" type="curve"/>
			<point x="510" y="134" type="line"/>
			<point x="496" y="87"/>
			<point x="471" y="72"/>
			<point x="431" y="72" type="curve" smooth="yes"/>
			<point x="371" y="72"/>
			<point x="349" y="96"/>
			<point x="344" y="176" type="curve"/>
		</contour>
		<contour>
			<point x="511" y="261" type="curve"/>
			<point x="345" y="261" type="line"/>
			<point x="351" y="335"/>
			<point x="379" y="359"/>
			<point x="430" y="359" type="curve" smooth="yes"/>
			<point x="474" y="359"/>
			<point x="505" y="335"/>
		</contour>
		<contour>
			<point x="170" y="72" type="curve" smooth="yes"/>
			<point x="122" y="72"/>
			<point x="90" y="100"/>
			<point x="90" y="215" type="curve" smooth="yes"/>
			<point x="90" y="330"/>
			<point x="122" y="358"/>
			<point x="170" y="358" type="curve" smooth="yes"/>
			<point x="218" y="358"/>
			<point x="252" y="330"/>
			<point x="252" y="215" type="curve" smooth="yes"/>
			<point x="252" y="100"/>
			<point x="218" y="72"/>
		</contour>
	</outline>
</glyph>
<glyph name="circumflex" format="2">
	<advance width="600"/>
	<unicode hex="02C6"/>
	<anchor x="289" y="443" name="_top"/>
	<outline>
		<contour>
			<point x="508" y="486" type="line"/>
			<point x="531" y="544" type="line"/>
			<point x="294" y="671" type="line"/>
			<point x="294" y="670" type="line"/>
			<point x="293" y="671" type="line"/>
			<point x="56" y="544" type="line"/>
			<point x="79" y="486" type="line"/>
			<point x="294" y="571" type="line"/>
		</contour>
	</outline>
</glyph>
<glyph name="dotaccent" format="2">
	<advance width="600"/>
	<unicode hex="02D9"/>
	<anchor x="308" y="473" name="_top"/>
	<outline>
		<contour>
			<point x="377" y="700" type="line"/>
			<point x="229" y="700" type="line"/>
			<point x="229" y="552" type="line"/>
			<point x="377" y="552" type="line"/>
		</contour>
	</outline>
</glyph>
<glyph name="ring" format="2">
	<advance width="600"/>
	<unicode hex="02DA"/>
	<anchor x="301" y="443" name="_top"/>
	<outline>
		<contour>
			<point x="304" y="509" type="curve"/>
			<point x="390.117" y="509"/>
			<point x="439" y="576.77"/>
			<point x="439" y="645" type="curve"/>
			<point x="439" y="712.23"/>
			<point x="390.117" y="780"/>
			<point x="304" y="780" type="curve"/>
			<point x="216.883" y="780"/>
			<point x="168" y="712.23"/>
			<point x="168" y="645" type="curve"/>
			<point x="168" y="576.77"/>
			<point x="216.883" y="509"/>
		</contour>
		<contour>
			<point x="304" y="590" type="curve"/>
			<point x="273.256" y="590"/>
			<point x="249" y="614.256"/>
			<point x="249" y="645" type="curve"/>
			<point x="249" y="674.74"/>
			<point x="273.256" y="699"/>
			<point x="304" y="699" type="curve"/>
			<point x="333.74" y="699"/>
			<point x="358" y="674.74"/>
			<point x="358" y="645" type="curve"/>
			<point x="358" y="614.256"/>
			<point x="333.74" y="590"/>
		</contour>
	</outline>
</glyph>
<glyph name="tilde" format="2">
	<advance width="600"/>
	<unicode hex="02DC"/>
	<anchor x="289" y="443" name="_top"/>
	<outline>
		<contour>
			<point x="515" y="601" type="curve"/>
			<point x="437" y="627" type="line"/>
			<point x="420" y="564"/>
			<point x="395" y="564"/>
			<point x="300" y="604" type="curve" smooth="yes"/>
			<point x="169" y="659"/>
			<point x="104" y="624"/>
			<point x="68" y="520" type="curve"/>
			<point x="147" y="494" type="line"/>
			<point x="171" y="558"/>
			<point x="199" y="558"/>
			<point x="303" y="516" type="curve" smooth="yes"/>
			<point x="419" y="469"/>
			<point x="482" y="495"/>
		</contour>
	</outline>
</glyph>
<glyph name="hungarumlaut" format="2">
	<advance width="600"/>
	<unicode hex="02DD"/>
	<anchor x="289" y="515" name="_top"/>
	<outline>
		<contour>
			<point x="292" y="808" type="line"/>
			<point x="35" y="678" type="line"/>
			<point x="58" y="620" type="line"/>
			<point x="330" y="710" type="line"/>
		</contour>
		<contour>
			<point x="552" y="788" type="line"/>
			<point x="295" y="664" type="line"/>
			<point x="318" y="606" type="line"/>
			<point x="590" y="690" type="line"/>
		</contour>
	</outline>
</glyph>
<glyph name="uni03BC" format="2">
	<advance width="600"/>
	<unicode hex="03BC"/>
	<outline>
		<contour>
			<point x="528" y="430" type="line"/>
			<point x="438" y="430" type="line"/>
			<point x="438" y="220" type="line"/>
			<point x="393" y="166" type="line" smooth="yes"/>
			<point x="328" y="88"/>
			<point x="294" y="73"/>
			<point x="236" y="73" type="curve" smooth="yes"/>
			<point x="182" y="73"/>
			<point x="165" y="99"/>
			<point x="165" y="158" type="curve"/>
			<point x="162" y="430" type="line"/>
			<point x="72" y="430" type="line"/>
			<point x="72" y="-173" type="line"/>
			<point x="162" y="-173" type="line"/>
			<point x="164" y="-6" type="line"/>
			<point x="182" y="-10"/>
			<point x="202" y="-12"/>
			<point x="225" y="-12" type="curve" smooth="yes"/>
			<point x="314" y="-12"/>
			<point x="366" y="11"/>
			<point x="439" y="105" type="curve"/>
			<point x="439" y="0" type="line"/>
			<point x="528" y="0" type="line"/>
		</contour>
	</outline>
</glyph>
<glyph name="pi" format="2">
	<advance width="600"/>
	<unicode hex="03C0"/>
	<outline>
		<contour>
			<point x="554" y="137" type="line"/>
			<point x="469" y="171" type="line"/>
			<point x="425" y="76" type="line"/>
			<point x="427" y="355" type="line"/>
			<point x="520" y="355" type="line"/>
			<point x="520" y="440" type="line"/>
			<point x="46" y="440" type="line"/>
			<point x="46" y="355" type="line"/>
			<point x="139" y="355" type="line"/>
			<point x="139" y="-1" type="line"/>
			<point x="229" y="-1" type="line"/>
			<point x="229" y="355" type="line"/>
			<point x="337" y="355" type="line"/>
			<point x="337" y="96" type="line"/>
			<point x="337" y="20"/>
			<point x="376" y="-14"/>
			<point x="422" y="-14" type="curve"/>
			<point x="470" y="-14"/>
			<point x="500" y="21"/>
			<point x="515" y="52" type="curve"/>
		</contour>
	</outline>
</glyph>
<glyph name="emdash" format="2">
	<advance width="600"/>
	<unicode hex="2014"/>
	<outline>
		<contour>
			<point x="47" y="292" type="line"/>
			<point x="47" y="207" type="line"/>
			<point x="553" y="207" type="line"/>
			<point x="553" y="292" type="line"/>
		</contour>
	</outline>
</glyph>
<glyph name="quotedblright" format="2">
	<advance width="600"/>
	<unicode hex="201D"/>
	<outline>
		<contour>
			<point x="271" y="603" type="line"/>
			<point x="99" y="603" type="line"/>
			<point x="99" y="460" type="line"/>
			<point x="157" y="460" type="line"/>
			<point x="104" y="304" type="line"/>
			<point x="170" y="282" type="line"/>
			<point x="271" y="470" type="line"/>
		</contour>
		<contour>
			<point x="501" y="603" type="line"/>
			<point x="329" y="603" type="line"/>
			<point x="329" y="460" type="line"/>
			<point x="387" y="460" type="line"/>
			<point x="334" y="304" type="line"/>
			<point x="400" y="282" type="line"/>
			<point x="501" y="470" type="line"/>
		</contour>
	</outline>
</glyph>
<glyph name="quotedblbase" format="2">
	<advance width="600"/>
	<unicode hex="201E"/>
	<outline>
		<contour>
			<point x="271" y="148" type="line"/>
			<point x="99" y="148" type="line"/>
			<point x="99" y="5" type="line"/>
			<point x="157" y="5" type="line"/>
			<point x="104" y="-151" type="line"/>
			<point x="170" y="-173" type="line"/>
			<point x="271" y="15" type="line"/>
		</contour>
		<contour>
			<point x="501" y="148" type="line"/>
			<point x="329" y="148" type="line"/>
			<point x="329" y="5" type="line"/>
			<point x="387" y="5" type="line"/>
			<point x="334" y="-151" type="line"/>
			<point x="400" y="-173" type="line"/>
			<point x="501" y="15" type="line"/>
		</contour>
	</outline>
</glyph>
<glyph name="dagger" format="2">
	<advance width="600"/>
	<unicode hex="2020"/>
	<outline>
		<contour>
			<point x="256" y="603" type="line"/>
			<point x="256" y="-160" type="line"/>
			<point x="346" y="-160" type="line"/>
			<point x="346" y="603" type="line"/>
		</contour>
		<contour>
			<point x="482" y="412" type="line"/>
			<point x="118" y="412" type="line"/>
			<point x="118" y="327" type="line"/>
			<point x="482" y="327" type="line"/>
		</contour>
	</outline>
</glyph>
<glyph name="perthousand" format="2">
	<advance width="600"/>
	<unicode hex="2030"/>
	<outline>
		<contour>
			<point x="64" y="-6" type="line"/>
			<point x="453" y="552" type="line"/>
			<point x="382" y="603" type="line"/>
			<point x="-7" y="45" type="line"/>
		</contour>
		<contour>
			<point x="95" y="464" type="curve" smooth="yes"/>
			<point x="95" y="530"/>
			<point x="110" y="532"/>
			<point x="118" y="532" type="curve" smooth="yes"/>
			<point x="126" y="532"/>
			<point x="141" y="530"/>
			<point x="141" y="464" type="curve" smooth="yes"/>
			<point x="141" y="405"/>
			<point x="126" y="400"/>
			<point x="118" y="400" type="curve" smooth="yes"/>
			<point x="110" y="400"/>
			<point x="95" y="405"/>
		</contour>
		<contour>
			<point x="30" y="464" type="curve" smooth="yes"/>
			<point x="30" y="358"/>
			<point x="68" y="329"/>
			<point x="118" y="329" type="curve" smooth="yes"/>
			<point x="168" y="329"/>
			<point x="206" y="358"/>
			<point x="206" y="464" type="curve" smooth="yes"/>
			<point x="206" y="576"/>
			<point x="168" y="603"/>
			<point x="118" y="603" type="curve" smooth="yes"/>
			<point x="68" y="603"/>
			<point x="30" y="576"/>
		</contour>
		<contour>
			<point x="295" y="122" type="curve" smooth="yes"/>
			<point x="295" y="188"/>
			<point x="310" y="190"/>
			<point x="318" y="190" type="curve" smooth="yes"/>
			<point x="326" y="190"/>
			<point x="341" y="188"/>
			<point x="341" y="122" type="curve" smooth="yes"/>
			<point x="341" y="63"/>
			<point x="326" y="58"/>
			<point x="318" y="58" type="curve" smooth="yes"/>
			<point x="310" y="58"/>
			<point x="295" y="63"/>
		</contour>
		<contour>
			<point x="230" y="122" type="curve" smooth="yes"/>
			<point x="230" y="16"/>
			<point x="268" y="-13"/>
			<point x="318" y="-13" type="curve" smooth="yes"/>
			<point x="368" y="-13"/>
			<point x="406" y="16"/>
			<point x="406" y="122" type="curve" smooth="yes"/>
			<point x="406" y="234"/>
			<point x="368" y="261"/>
			<point x="318" y="261" type="curve" smooth="yes"/>
			<point x="268" y="261"/>
			<point x="230" y="234"/>
		</contour>
		<contour>
			<point x="488" y="122" type="curve" smooth="yes"/>
			<point x="488" y="188"/>
			<point x="503" y="190"/>
			<point x="511" y="190" type="curve" smooth="yes"/>
			<point x="519" y="190"/>
			<point x="534" y="188"/>
			<point x="534" y="122" type="curve" smooth="yes"/>
			<point x="534" y="63"/>
			<point x="519" y="58"/>
			<point x="511" y="58" type="curve" smooth="yes"/>
			<point x="503" y="58"/>
			<point x="488" y="63"/>
		</contour>
		<contour>
			<point x="423" y="122" type="curve" smooth="yes"/>
			<point x="423" y="16"/>
			<point x="461" y="-13"/>
			<point x="511" y="-13" type="curve" smooth="yes"/>
			<point x="561" y="-13"/>
			<point x="599" y="16"/>
			<point x="599" y="122" type="curve" smooth="yes"/>
			<point x="599" y="234"/>
			<point x="561" y="261"/>
			<point x="511" y="261" type="curve" smooth="yes"/>
			<point x="461" y="261"/>
			<point x="423" y="234"/>
		</contour>
	</outline>
</glyph>
<glyph name="trademark" format="2">
	<advance width="600"/>
	<unicode hex="2122"/>
	<outline>
		<contour>
			<point x="284" y="556" type="line"/>
			<point x="284" y="603" type="line"/>
			<point x="44" y="603" type="line"/>
			<point x="44" y="556" type="line"/>
			<point x="139" y="556" type="line"/>
			<point x="139" y="375" type="line"/>
			<point x="189" y="375" type="line"/>
			<point x="189" y="556" type="line"/>
		</contour>
		<contour>
			<point x="556" y="603" type="line"/>
			<point x="484" y="603" type="line"/>
			<point x="437" y="501" type="line"/>
			<point x="392" y="603" type="line"/>
			<point x="320" y="603" type="line"/>
			<point x="320" y="375" type="line"/>
			<point x="370" y="375" type="line"/>
			<point x="370" y="553" type="line"/>
			<point x="419" y="449" type="line"/>
			<point x="455" y="449" type="line"/>
			<point x="506" y="553" type="line"/>
			<point x="506" y="375" type="line"/>
			<point x="556" y="375" type="line"/>
		</contour>
	</outline>
</glyph>
<glyph name="partialdiff" format="2">
	<advance width="600"/>
	<unicode hex="2202"/>
	<outline>
		<contour>
			<point x="252" y="592" type="curve"/>
			<point x="189" y="603" type="line"/>
			<point x="169" y="516" type="line"/>
			<point x="236" y="503" type="line"/>
			<point x="324" y="487"/>
			<point x="376" y="461"/>
			<point x="406" y="371" type="curve"/>
			<point x="375" y="398"/>
			<point x="337" y="410"/>
			<point x="288" y="410" type="curve"/>
			<point x="206" y="410"/>
			<point x="78" y="366"/>
			<point x="78" y="211" type="curve"/>
			<point x="78" y="27"/>
			<point x="206" y="-13"/>
			<point x="288" y="-13" type="curve"/>
			<point x="438" y="-13"/>
			<point x="522" y="50"/>
			<point x="522" y="211" type="curve"/>
			<point x="522" y="474"/>
			<point x="412" y="563"/>
		</contour>
		<contour>
			<point x="432" y="204" type="curve"/>
			<point x="432" y="113"/>
			<point x="388" y="76"/>
			<point x="301" y="76" type="curve"/>
			<point x="217" y="76"/>
			<point x="168" y="113"/>
			<point x="168" y="204" type="curve"/>
			<point x="168" y="281"/>
			<point x="217" y="323"/>
			<point x="301" y="322" type="curve"/>
			<point x="388" y="321"/>
			<point x="432" y="281"/>
		</contour>
	</outline>
</glyph>
<glyph name="emptyset" format="2">
	<advance width="600"/>
	<unicode hex="2205"/>
	<outline>
		<contour>
			<point x="300" y="72" type="curve" smooth="yes"/>
			<point x="164" y="72"/>
			<point x="148" y="104"/>
			<point x="148" y="215" type="curve" smooth="yes"/>
			<point x="148" y="326"/>
			<point x="164" y="358"/>
			<point x="300" y="358" type="curve" smooth="yes"/>
			<point x="436" y="358"/>
			<point x="452" y="326"/>
			<point x="452" y="215" type="curve" smooth="yes"/>
			<point x="452" y="104"/>
			<point x="436" y="72"/>
		</contour>
		<contour>
			<point x="300" y="-13" type="curve" smooth="yes"/>
			<point x="496" y="-13"/>
			<point x="542" y="49"/>
			<point x="542" y="215" type="curve" smooth="yes"/>
			<point x="542" y="381"/>
			<point x="496" y="443"/>
			<point x="300" y="443" type="curve" smooth="yes"/>
			<point x="104" y="443"/>
			<point x="58" y="381"/>
			<point x="58" y="215" type="curve" smooth="yes"/>
			<point x="58" y="49"/>
			<point x="104" y="-13"/>
		</contour>
		<contour>
			<point x="437" y="556" type="line"/>
			<point x="346" y="556" type="line"/>
			<point x="166" y="-127" type="line"/>
			<point x="257" y="-127" type="line"/>
		</contour>
	</outline>
</glyph>
<glyph name="product" format="2">
	<advance width="600"/>
	<unicode hex="220F"/>
	<outline>
		<contour>
			<point x="133" y="590" type="line"/>
			<point x="133" y="-160" type="line"/>
			<point x="223" y="-160" type="line"/>
			<point x="223" y="590" type="line"/>
		</contour>
		<contour>
			<point x="373" y="590" type="line"/>
			<point x="373" y="-160" type="line"/>
			<point x="463" y="-160" type="line"/>
			<point x="463" y="590" type="line"/>
		</contour>
		<contour>
			<point x="565" y="590" type="line"/>
			<point x="35" y="590" type="line"/>
			<point x="35" y="505" type="line"/>
			<point x="565" y="505" type="line"/>
		</contour>
	</outline>
</glyph>
<glyph name="summation" format="2">
	<advance width="600"/>
	<unicode hex="2211"/>
	<outline>
		<contour>
			<point x="49" y="527" type="line"/>
			<point x="252" y="215" type="line"/>
			<point x="49" y="-97" type="line"/>
			<point x="49" y="-173" type="line"/>
			<point x="552" y="-173" type="line"/>
			<point x="552" y="-83" type="line"/>
			<point x="165" y="-83" type="line"/>
			<point x="358" y="215" type="line"/>
			<point x="165" y="513" type="line"/>
			<point x="552" y="513" type="line"/>
			<point x="552" y="603" type="line"/>
			<point x="49" y="603" type="line"/>
		</contour>
	</outline>
</glyph>
<glyph name="integral" format="2">
	<advance width="600"/>
	<unicode hex="222B"/>
	<outline>
		<contour>
			<point x="171" y="-83" type="curve"/>
			<point x="169" y="-173" type="line"/>
			<point x="317" y="-177"/>
			<point x="338" y="12"/>
			<point x="345" y="211" type="curve" smooth="yes"/>
			<point x="351" y="396"/>
			<point x="366" y="517"/>
			<point x="429" y="515" type="curve"/>
			<point x="431" y="605" type="line"/>
			<point x="283" y="609"/>
			<point x="261" y="414"/>
			<point x="255" y="215" type="curve" smooth="yes"/>
			<point x="249" y="30"/>
			<point x="234" y="-85"/>
		</contour>
	</outline>
</glyph>
<glyph name="lozenge" format="2">
	<advance width="600"/>
	<unicode hex="25CA"/>
	<outline>
		<contour>
			<point x="229" y="603" type="line"/>
			<point x="81" y="295" type="line"/>
			<point x="228" y="-13" type="line"/>
			<point x="371" y="-13" type="line"/>
			<point x="518" y="295" type="line"/>
			<point x="367" y="603" type="line"/>
		</contour>
		<contour>
			<point x="300" y="53" type="line"/>
			<point x="180" y="295" type="line"/>
			<point x="300" y="536" type="line"/>
			<point x="420" y="295" type="line"/>
		</contour>
	</outline>
</glyph>
<glyph name="fl" format="2">
	<advance width="600"/>
	<unicode hex="FB02"/>
	<outline>
		<contour>
			<point x="593" y="84" type="line"/>
			<point x="480" y="84" type="line"/>
			<point x="480" y="590" type="line"/>
			<point x="178" y="589"/>
			<point x="307" y="590"/>
			<point x="262" y="590" type="curve" smooth="yes"/>
			<point x="180" y="590"/>
			<point x="97" y="547"/>
			<point x="75" y="430" type="curve"/>
			<point x="3" y="430" type="line"/>
			<point x="3" y="345" type="line"/>
			<point x="70" y="345" type="line"/>
			<point x="70" y="-1" type="line"/>
			<point x="160" y="-1" type="line"/>
			<point x="160" y="345" type="line"/>
			<point x="343" y="345" type="line"/>
			<point x="343" y="430" type="line"/>
			<point x="169" y="430" type="line"/>
			<point x="184" y="477"/>
			<point x="219" y="505"/>
			<point x="276" y="505" type="curve" smooth="yes"/>
			<point x="322" y="505"/>
			<point x="172" y="505"/>
			<point x="390" y="505" type="curve"/>
			<point x="390" y="84" type="line"/>
			<point x="217" y="84" type="line"/>
			<point x="217" y="-1" type="line"/>
			<point x="593" y="-1" type="line"/>
		</contour>
	</outline>
</glyph>
<glyph name=".notdef" format="2">
	<advance width="600"/>
	<outline>
		<contour>
			<point x="7" y="471" type="line"/>
			<point x="13" y="471" type="line"/>
			<point x="13" y="535" type="line"/>
			<point x="7" y="535" type="line"/>
		</contour>
		<contour>
			<point x="34" y="471" type="line"/>
			<point x="39" y="471" type="line"/>
			<point x="39" y="535" type="line"/>
			<point x="34" y="535" type="line"/>
		</contour>
		<contour>
			<point x="65" y="499" type="line"/>
			<point x="65" y="506" type="line"/>
			<point x="36" y="506" type="line"/>
			<point x="36" y="499" type="line"/>
		</contour>
		<contour>
			<point x="78" y="529" type="line"/>
			<point x="78" y="535" type="line"/>
			<point x="36" y="535" type="line"/>
			<point x="36" y="529" type="line"/>
		</contour>
		<contour>
			<point x="119" y="471" type="line"/>
			<point x="126" y="471" type="line"/>
			<point x="126" y="503" type="line"/>
			<point x="119" y="503" type="line"/>
		</contour>
		<contour>
			<point x="148" y="499" type="line"/>
			<point x="148" y="506" type="line"/>
			<point x="97" y="506" type="line"/>
			<point x="97" y="499" type="line"/>
		</contour>
		<contour>
			<point x="97" y="503" type="line"/>
			<point x="104" y="503" type="line"/>
			<point x="104" y="535" type="line"/>
			<point x="97" y="535" type="line"/>
		</contour>
		<contour>
			<point x="142" y="503" type="line"/>
			<point x="148" y="503" type="line"/>
			<point x="148" y="535" type="line"/>
			<point x="142" y="535" type="line"/>
		</contour>
		<contour>
			<point x="168" y="471" type="line"/>
			<point x="168" y="535" type="line"/>
			<point x="174" y="535" type="line"/>
			<point x="174" y="471" type="line"/>
		</contour>
		<contour>
			<point x="213" y="529" type="line"/>
			<point x="171" y="529" type="line"/>
			<point x="171" y="535" type="line"/>
			<point x="213" y="535" type="line"/>
		</contour>
		<contour>
			<point x="213" y="471" type="line"/>
			<point x="171" y="471" type="line"/>
			<point x="171" y="477" type="line"/>
			<point x="213" y="477" type="line"/>
		</contour>
		<contour>
			<point x="210" y="471" type="line"/>
			<point x="210" y="535" type="line"/>
			<point x="216" y="535" type="line"/>
			<point x="216" y="471" type="line"/>
		</contour>
		<contour>
			<point x="236" y="471" type="line"/>
			<point x="236" y="535" type="line"/>
			<point x="242" y="535" type="line"/>
			<point x="242" y="471" type="line"/>
		</contour>
		<contour>
			<point x="286" y="471" type="line"/>
			<point x="239" y="471" type="line"/>
			<point x="239" y="477" type="line"/>
			<point x="286" y="477" type="line"/>
		</contour>
		<contour>
			<point x="281" y="471" type="line"/>
			<point x="281" y="535" type="line"/>
			<point x="287" y="535" type="line"/>
			<point x="287" y="471" type="line"/>
		</contour>
		<contour>
			<point x="7" y="373" type="line"/>
			<point x="13" y="373" type="line"/>
			<point x="13" y="439" type="line"/>
			<point x="7" y="439" type="line"/>
		</contour>
		<contour>
			<point x="36" y="373" type="line"/>
			<point x="36" y="380" type="line"/>
			<point x="9" y="380" type="line"/>
			<point x="9" y="373" type="line"/>
		</contour>
		<contour>
			<point x="34" y="373" type="line"/>
			<point x="39" y="373" type="line"/>
			<point x="39" y="416" type="line"/>
			<point x="34" y="416" type="line"/>
		</contour>
		<contour>
			<point x="62" y="373" type="line"/>
			<point x="62" y="380" type="line"/>
			<point x="36" y="380" type="line"/>
			<point x="36" y="373" type="line"/>
		</contour>
		<contour>
			<point x="59" y="373" type="line"/>
			<point x="65" y="373" type="line"/>
			<point x="65" y="439" type="line"/>
			<point x="59" y="439" type="line"/>
		</contour>
		<contour>
			<point x="158" y="373" type="line"/>
			<point x="165" y="373" type="line"/>
			<point x="165" y="439" type="line"/>
			<point x="158" y="439" type="line"/>
		</contour>
		<contour>
			<point x="204" y="373" type="line"/>
			<point x="210" y="373" type="line"/>
			<point x="210" y="439" type="line"/>
			<point x="204" y="439" type="line"/>
		</contour>
		<contour>
			<point x="171" y="439" type="line"/>
			<point x="171" y="412" type="line"/>
			<point x="178" y="412" type="line"/>
			<point x="178" y="439" type="line"/>
		</contour>
		<contour>
			<point x="174" y="439" type="line"/>
			<point x="162" y="439" type="line"/>
			<point x="162" y="432" type="line"/>
			<point x="174" y="432" type="line"/>
		</contour>
		<contour>
			<point x="181" y="418" type="line"/>
			<point x="181" y="393" type="line"/>
			<point x="187" y="393" type="line"/>
			<point x="187" y="418" type="line"/>
		</contour>
		<contour>
			<point x="185" y="418" type="line"/>
			<point x="171" y="418" type="line"/>
			<point x="171" y="412" type="line"/>
			<point x="185" y="412" type="line"/>
		</contour>
		<contour>
			<point x="190" y="400" type="line"/>
			<point x="190" y="373" type="line"/>
			<point x="197" y="373" type="line"/>
			<point x="197" y="400" type="line"/>
		</contour>
		<contour>
			<point x="194" y="400" type="line"/>
			<point x="181" y="400" type="line"/>
			<point x="181" y="393" type="line"/>
			<point x="194" y="393" type="line"/>
		</contour>
		<contour>
			<point x="207" y="380" type="line"/>
			<point x="194" y="380" type="line"/>
			<point x="194" y="373" type="line"/>
			<point x="207" y="373" type="line"/>
		</contour>
		<contour>
			<point x="246" y="373" type="line"/>
			<point x="251" y="373" type="line"/>
			<point x="251" y="439" type="line"/>
			<point x="246" y="439" type="line"/>
		</contour>
		<contour>
			<point x="273" y="432" type="line"/>
			<point x="273" y="439" type="line"/>
			<point x="223" y="439" type="line"/>
			<point x="223" y="432" type="line"/>
		</contour>
		<contour>
			<point x="302" y="373" type="line"/>
			<point x="307" y="373" type="line"/>
			<point x="307" y="439" type="line"/>
			<point x="302" y="439" type="line"/>
		</contour>
		<contour>
			<point x="313" y="439" type="line"/>
			<point x="313" y="412" type="line"/>
			<point x="321" y="412" type="line"/>
			<point x="321" y="439" type="line"/>
		</contour>
		<contour>
			<point x="318" y="439" type="line"/>
			<point x="307" y="439" type="line"/>
			<point x="307" y="432" type="line"/>
			<point x="318" y="432" type="line"/>
		</contour>
		<contour>
			<point x="323" y="418" type="line"/>
			<point x="323" y="393" type="line"/>
			<point x="329" y="393" type="line"/>
			<point x="329" y="418" type="line"/>
		</contour>
		<contour>
			<point x="326" y="418" type="line"/>
			<point x="313" y="418" type="line"/>
			<point x="313" y="412" type="line"/>
			<point x="326" y="412" type="line"/>
		</contour>
		<contour>
			<point x="336" y="400" type="line"/>
			<point x="323" y="400" type="line"/>
			<point x="323" y="393" type="line"/>
			<point x="336" y="393" type="line"/>
		</contour>
		<contour>
			<point x="371" y="373" type="line"/>
			<point x="371" y="439" type="line"/>
			<point x="364" y="439" type="line"/>
			<point x="364" y="373" type="line"/>
		</contour>
		<contour>
			<point x="358" y="439" type="line"/>
			<point x="352" y="439" type="line"/>
			<point x="352" y="412" type="line"/>
			<point x="358" y="412" type="line"/>
		</contour>
		<contour>
			<point x="355" y="439" type="line"/>
			<point x="355" y="432" type="line"/>
			<point x="367" y="432" type="line"/>
			<point x="367" y="439" type="line"/>
		</contour>
		<contour>
			<point x="348" y="418" type="line"/>
			<point x="343" y="418" type="line"/>
			<point x="343" y="393" type="line"/>
			<point x="348" y="393" type="line"/>
		</contour>
		<contour>
			<point x="345" y="418" type="line"/>
			<point x="345" y="412" type="line"/>
			<point x="358" y="412" type="line"/>
			<point x="358" y="418" type="line"/>
		</contour>
		<contour>
			<point x="336" y="400" type="line"/>
			<point x="336" y="393" type="line"/>
			<point x="348" y="393" type="line"/>
			<point x="348" y="400" type="line"/>
		</contour>
		<contour>
			<point x="333" y="400" type="line"/>
			<point x="333" y="373" type="line"/>
			<point x="339" y="373" type="line"/>
			<point x="339" y="400" type="line"/>
		</contour>
		<contour>
			<point x="390" y="373" type="line"/>
			<point x="397" y="373" type="line"/>
			<point x="397" y="439" type="line"/>
			<point x="390" y="439" type="line"/>
		</contour>
		<contour>
			<point x="436" y="432" type="line"/>
			<point x="436" y="439" type="line"/>
			<point x="394" y="439" type="line"/>
			<point x="394" y="432" type="line"/>
		</contour>
		<contour>
			<point x="436" y="373" type="line"/>
			<point x="436" y="380" type="line"/>
			<point x="394" y="380" type="line"/>
			<point x="394" y="373" type="line"/>
		</contour>
		<contour>
			<point x="432" y="373" type="line"/>
			<point x="439" y="373" type="line"/>
			<point x="439" y="439" type="line"/>
			<point x="432" y="439" type="line"/>
		</contour>
		<contour>
			<point x="454" y="406" type="line"/>
			<point x="454" y="373" type="line"/>
			<point x="461" y="373" type="line"/>
			<point x="461" y="406" type="line"/>
		</contour>
		<contour>
			<point x="487" y="439" type="line"/>
			<point x="459" y="439" type="line"/>
			<point x="459" y="432" type="line"/>
			<point x="487" y="432" type="line"/>
		</contour>
		<contour>
			<point x="503" y="406" type="line"/>
			<point x="503" y="373" type="line"/>
			<point x="509" y="373" type="line"/>
			<point x="509" y="406" type="line"/>
		</contour>
		<contour>
			<point x="507" y="406" type="line"/>
			<point x="459" y="406" type="line"/>
			<point x="459" y="400" type="line"/>
			<point x="507" y="400" type="line"/>
		</contour>
		<contour>
			<point x="454" y="439" type="line"/>
			<point x="454" y="406" type="line"/>
			<point x="461" y="406" type="line"/>
			<point x="461" y="439" type="line"/>
		</contour>
		<contour>
			<point x="484" y="439" type="line"/>
			<point x="484" y="406" type="line"/>
			<point x="490" y="406" type="line"/>
			<point x="490" y="439" type="line"/>
		</contour>
		<contour>
			<point x="523" y="373" type="line"/>
			<point x="529" y="373" type="line"/>
			<point x="529" y="439" type="line"/>
			<point x="523" y="439" type="line"/>
		</contour>
		<contour>
			<point x="555" y="403" type="line"/>
			<point x="555" y="410" type="line"/>
			<point x="526" y="410" type="line"/>
			<point x="526" y="403" type="line"/>
		</contour>
		<contour>
			<point x="568" y="432" type="line"/>
			<point x="568" y="439" type="line"/>
			<point x="526" y="439" type="line"/>
			<point x="526" y="432" type="line"/>
		</contour>
		<contour>
			<point x="568" y="373" type="line"/>
			<point x="568" y="380" type="line"/>
			<point x="526" y="380" type="line"/>
			<point x="526" y="373" type="line"/>
		</contour>
		<contour>
			<point x="7" y="180" type="line"/>
			<point x="13" y="180" type="line"/>
			<point x="13" y="245" type="line"/>
			<point x="7" y="245" type="line"/>
		</contour>
		<contour>
			<point x="48" y="237" type="line"/>
			<point x="48" y="245" type="line"/>
			<point x="9" y="245" type="line"/>
			<point x="9" y="237" type="line"/>
		</contour>
		<contour>
			<point x="48" y="180" type="line"/>
			<point x="48" y="187" type="line"/>
			<point x="9" y="187" type="line"/>
			<point x="9" y="180" type="line"/>
		</contour>
		<contour>
			<point x="65" y="180" type="line"/>
			<point x="71" y="180" type="line"/>
			<point x="71" y="245" type="line"/>
			<point x="65" y="245" type="line"/>
		</contour>
		<contour>
			<point x="110" y="237" type="line"/>
			<point x="110" y="245" type="line"/>
			<point x="68" y="245" type="line"/>
			<point x="68" y="237" type="line"/>
		</contour>
		<contour>
			<point x="110" y="180" type="line"/>
			<point x="110" y="187" type="line"/>
			<point x="68" y="187" type="line"/>
			<point x="68" y="180" type="line"/>
		</contour>
		<contour>
			<point x="107" y="180" type="line"/>
			<point x="114" y="180" type="line"/>
			<point x="114" y="245" type="line"/>
			<point x="107" y="245" type="line"/>
		</contour>
		<contour>
			<point x="133" y="180" type="line"/>
			<point x="140" y="180" type="line"/>
			<point x="140" y="245" type="line"/>
			<point x="133" y="245" type="line"/>
		</contour>
		<contour>
			<point x="178" y="180" type="line"/>
			<point x="185" y="180" type="line"/>
			<point x="185" y="245" type="line"/>
			<point x="178" y="245" type="line"/>
		</contour>
		<contour>
			<point x="146" y="245" type="line"/>
			<point x="146" y="219" type="line"/>
			<point x="152" y="219" type="line"/>
			<point x="152" y="245" type="line"/>
		</contour>
		<contour>
			<point x="148" y="245" type="line"/>
			<point x="135" y="245" type="line"/>
			<point x="135" y="237" type="line"/>
			<point x="148" y="237" type="line"/>
		</contour>
		<contour>
			<point x="155" y="225" type="line"/>
			<point x="155" y="200" type="line"/>
			<point x="162" y="200" type="line"/>
			<point x="162" y="225" type="line"/>
		</contour>
		<contour>
			<point x="158" y="225" type="line"/>
			<point x="146" y="225" type="line"/>
			<point x="146" y="219" type="line"/>
			<point x="158" y="219" type="line"/>
		</contour>
		<contour>
			<point x="165" y="206" type="line"/>
			<point x="165" y="180" type="line"/>
			<point x="171" y="180" type="line"/>
			<point x="171" y="206" type="line"/>
		</contour>
		<contour>
			<point x="168" y="206" type="line"/>
			<point x="155" y="206" type="line"/>
			<point x="155" y="200" type="line"/>
			<point x="168" y="200" type="line"/>
		</contour>
		<contour>
			<point x="181" y="187" type="line"/>
			<point x="168" y="187" type="line"/>
			<point x="168" y="180" type="line"/>
			<point x="181" y="180" type="line"/>
		</contour>
		<contour>
			<point x="216" y="180" type="line"/>
			<point x="223" y="180" type="line"/>
			<point x="223" y="245" type="line"/>
			<point x="216" y="245" type="line"/>
		</contour>
		<contour>
			<point x="246" y="237" type="line"/>
			<point x="246" y="245" type="line"/>
			<point x="194" y="245" type="line"/>
			<point x="194" y="237" type="line"/>
		</contour>
		<contour>
			<point x="321" y="180" type="line"/>
			<point x="326" y="180" type="line"/>
			<point x="326" y="245" type="line"/>
			<point x="321" y="245" type="line"/>
		</contour>
		<contour>
			<point x="361" y="237" type="line"/>
			<point x="361" y="245" type="line"/>
			<point x="323" y="245" type="line"/>
			<point x="323" y="237" type="line"/>
		</contour>
		<contour>
			<point x="361" y="180" type="line"/>
			<point x="361" y="187" type="line"/>
			<point x="323" y="187" type="line"/>
			<point x="323" y="180" type="line"/>
		</contour>
		<contour>
			<point x="397" y="180" type="line"/>
			<point x="404" y="180" type="line"/>
			<point x="404" y="245" type="line"/>
			<point x="397" y="245" type="line"/>
		</contour>
		<contour>
			<point x="426" y="237" type="line"/>
			<point x="426" y="245" type="line"/>
			<point x="375" y="245" type="line"/>
			<point x="375" y="237" type="line"/>
		</contour>
		<contour>
			<point x="13" y="149" type="line"/>
			<point x="13" y="122" type="line"/>
			<point x="21" y="122" type="line"/>
			<point x="21" y="149" type="line"/>
		</contour>
		<contour>
			<point x="17" y="149" type="line"/>
			<point x="5" y="149" type="line"/>
			<point x="5" y="142" type="line"/>
			<point x="17" y="142" type="line"/>
		</contour>
		<contour>
			<point x="23" y="129" type="line"/>
			<point x="23" y="104" type="line"/>
			<point x="29" y="104" type="line"/>
			<point x="29" y="129" type="line"/>
		</contour>
		<contour>
			<point x="26" y="129" type="line"/>
			<point x="13" y="129" type="line"/>
			<point x="13" y="122" type="line"/>
			<point x="26" y="122" type="line"/>
		</contour>
		<contour>
			<point x="36" y="110" type="line"/>
			<point x="23" y="110" type="line"/>
			<point x="23" y="104" type="line"/>
			<point x="36" y="104" type="line"/>
		</contour>
		<contour>
			<point x="59" y="149" type="line"/>
			<point x="52" y="149" type="line"/>
			<point x="52" y="122" type="line"/>
			<point x="59" y="122" type="line"/>
		</contour>
		<contour>
			<point x="55" y="149" type="line"/>
			<point x="55" y="142" type="line"/>
			<point x="68" y="142" type="line"/>
			<point x="68" y="149" type="line"/>
		</contour>
		<contour>
			<point x="48" y="129" type="line"/>
			<point x="42" y="129" type="line"/>
			<point x="42" y="104" type="line"/>
			<point x="48" y="104" type="line"/>
		</contour>
		<contour>
			<point x="47" y="129" type="line"/>
			<point x="47" y="122" type="line"/>
			<point x="59" y="122" type="line"/>
			<point x="59" y="129" type="line"/>
		</contour>
		<contour>
			<point x="36" y="110" type="line"/>
			<point x="36" y="104" type="line"/>
			<point x="48" y="104" type="line"/>
			<point x="48" y="110" type="line"/>
		</contour>
		<contour>
			<point x="34" y="110" type="line"/>
			<point x="34" y="83" type="line"/>
			<point x="39" y="83" type="line"/>
			<point x="39" y="110" type="line"/>
		</contour>
		<contour>
			<point x="81" y="83" type="line"/>
			<point x="87" y="83" type="line"/>
			<point x="87" y="149" type="line"/>
			<point x="81" y="149" type="line"/>
		</contour>
		<contour>
			<point x="114" y="112" type="line"/>
			<point x="114" y="119" type="line"/>
			<point x="85" y="119" type="line"/>
			<point x="85" y="112" type="line"/>
		</contour>
		<contour>
			<point x="126" y="142" type="line"/>
			<point x="126" y="149" type="line"/>
			<point x="85" y="149" type="line"/>
			<point x="85" y="142" type="line"/>
		</contour>
		<contour>
			<point x="126" y="83" type="line"/>
			<point x="126" y="90" type="line"/>
			<point x="85" y="90" type="line"/>
			<point x="85" y="83" type="line"/>
		</contour>
		<contour>
			<point x="190" y="149" type="line"/>
			<point x="190" y="122" type="line"/>
			<point x="197" y="122" type="line"/>
			<point x="197" y="149" type="line"/>
		</contour>
		<contour>
			<point x="194" y="149" type="line"/>
			<point x="181" y="149" type="line"/>
			<point x="181" y="142" type="line"/>
			<point x="194" y="142" type="line"/>
		</contour>
		<contour>
			<point x="200" y="129" type="line"/>
			<point x="200" y="104" type="line"/>
			<point x="207" y="104" type="line"/>
			<point x="207" y="129" type="line"/>
		</contour>
		<contour>
			<point x="204" y="129" type="line"/>
			<point x="190" y="129" type="line"/>
			<point x="190" y="122" type="line"/>
			<point x="204" y="122" type="line"/>
		</contour>
		<contour>
			<point x="213" y="110" type="line"/>
			<point x="200" y="110" type="line"/>
			<point x="200" y="104" type="line"/>
			<point x="213" y="104" type="line"/>
		</contour>
		<contour>
			<point x="236" y="149" type="line"/>
			<point x="230" y="149" type="line"/>
			<point x="230" y="122" type="line"/>
			<point x="236" y="122" type="line"/>
		</contour>
		<contour>
			<point x="233" y="149" type="line"/>
			<point x="233" y="142" type="line"/>
			<point x="246" y="142" type="line"/>
			<point x="246" y="149" type="line"/>
		</contour>
		<contour>
			<point x="227" y="129" type="line"/>
			<point x="219" y="129" type="line"/>
			<point x="219" y="104" type="line"/>
			<point x="227" y="104" type="line"/>
		</contour>
		<contour>
			<point x="223" y="129" type="line"/>
			<point x="223" y="122" type="line"/>
			<point x="236" y="122" type="line"/>
			<point x="236" y="129" type="line"/>
		</contour>
		<contour>
			<point x="213" y="110" type="line"/>
			<point x="213" y="104" type="line"/>
			<point x="227" y="104" type="line"/>
			<point x="227" y="110" type="line"/>
		</contour>
		<contour>
			<point x="210" y="110" type="line"/>
			<point x="210" y="83" type="line"/>
			<point x="216" y="83" type="line"/>
			<point x="216" y="110" type="line"/>
		</contour>
		<contour>
			<point x="258" y="83" type="line"/>
			<point x="265" y="83" type="line"/>
			<point x="265" y="149" type="line"/>
			<point x="258" y="149" type="line"/>
		</contour>
		<contour>
			<point x="287" y="112" type="line"/>
			<point x="287" y="119" type="line"/>
			<point x="261" y="119" type="line"/>
			<point x="261" y="112" type="line"/>
		</contour>
		<contour>
			<point x="307" y="142" type="line"/>
			<point x="307" y="149" type="line"/>
			<point x="261" y="149" type="line"/>
			<point x="261" y="142" type="line"/>
		</contour>
		<contour>
			<point x="307" y="83" type="line"/>
			<point x="307" y="90" type="line"/>
			<point x="261" y="90" type="line"/>
			<point x="261" y="83" type="line"/>
		</contour>
		<contour>
			<point x="146" y="83" type="line"/>
			<point x="152" y="83" type="line"/>
			<point x="152" y="149" type="line"/>
			<point x="146" y="149" type="line"/>
		</contour>
		<contour>
			<point x="190" y="83" type="line"/>
			<point x="190" y="90" type="line"/>
			<point x="148" y="90" type="line"/>
			<point x="148" y="83" type="line"/>
		</contour>
		<contour>
			<point x="339" y="83" type="line"/>
			<point x="345" y="83" type="line"/>
			<point x="345" y="149" type="line"/>
			<point x="339" y="149" type="line"/>
		</contour>
		<contour>
			<point x="367" y="142" type="line"/>
			<point x="367" y="149" type="line"/>
			<point x="318" y="149" type="line"/>
			<point x="318" y="142" type="line"/>
		</contour>
		<contour>
			<point x="446" y="83" type="line"/>
			<point x="452" y="83" type="line"/>
			<point x="452" y="149" type="line"/>
			<point x="446" y="149" type="line"/>
		</contour>
		<contour>
			<point x="490" y="83" type="line"/>
			<point x="497" y="83" type="line"/>
			<point x="497" y="149" type="line"/>
			<point x="490" y="149" type="line"/>
		</contour>
		<contour>
			<point x="459" y="149" type="line"/>
			<point x="459" y="122" type="line"/>
			<point x="465" y="122" type="line"/>
			<point x="465" y="149" type="line"/>
		</contour>
		<contour>
			<point x="461" y="149" type="line"/>
			<point x="448" y="149" type="line"/>
			<point x="448" y="142" type="line"/>
			<point x="461" y="142" type="line"/>
		</contour>
		<contour>
			<point x="468" y="129" type="line"/>
			<point x="468" y="104" type="line"/>
			<point x="475" y="104" type="line"/>
			<point x="475" y="129" type="line"/>
		</contour>
		<contour>
			<point x="470" y="129" type="line"/>
			<point x="459" y="129" type="line"/>
			<point x="459" y="122" type="line"/>
			<point x="470" y="122" type="line"/>
		</contour>
		<contour>
			<point x="478" y="110" type="line"/>
			<point x="478" y="83" type="line"/>
			<point x="484" y="83" type="line"/>
			<point x="484" y="110" type="line"/>
		</contour>
		<contour>
			<point x="480" y="110" type="line"/>
			<point x="468" y="110" type="line"/>
			<point x="468" y="104" type="line"/>
			<point x="480" y="104" type="line"/>
		</contour>
		<contour>
			<point x="493" y="90" type="line"/>
			<point x="480" y="90" type="line"/>
			<point x="480" y="83" type="line"/>
			<point x="493" y="83" type="line"/>
		</contour>
		<contour>
			<point x="513" y="83" type="line"/>
			<point x="519" y="83" type="line"/>
			<point x="519" y="149" type="line"/>
			<point x="513" y="149" type="line"/>
		</contour>
		<contour>
			<point x="546" y="112" type="line"/>
			<point x="546" y="119" type="line"/>
			<point x="516" y="119" type="line"/>
			<point x="516" y="112" type="line"/>
		</contour>
		<contour>
			<point x="558" y="142" type="line"/>
			<point x="558" y="149" type="line"/>
			<point x="516" y="149" type="line"/>
			<point x="516" y="142" type="line"/>
		</contour>
		<contour>
			<point x="558" y="83" type="line"/>
			<point x="558" y="90" type="line"/>
			<point x="516" y="90" type="line"/>
			<point x="516" y="83" type="line"/>
		</contour>
		<contour>
			<point x="404" y="83" type="line"/>
			<point x="409" y="83" type="line"/>
			<point x="409" y="116" type="line"/>
			<point x="404" y="116" type="line"/>
		</contour>
		<contour>
			<point x="432" y="112" type="line"/>
			<point x="432" y="119" type="line"/>
			<point x="381" y="119" type="line"/>
			<point x="381" y="112" type="line"/>
		</contour>
		<contour>
			<point x="381" y="116" type="line"/>
			<point x="387" y="116" type="line"/>
			<point x="387" y="149" type="line"/>
			<point x="381" y="149" type="line"/>
		</contour>
		<contour>
			<point x="426" y="116" type="line"/>
			<point x="432" y="116" type="line"/>
			<point x="432" y="149" type="line"/>
			<point x="426" y="149" type="line"/>
		</contour>
		<contour>
			<point x="26" y="-13" type="line"/>
			<point x="34" y="-13" type="line"/>
			<point x="34" y="51" type="line"/>
			<point x="26" y="51" type="line"/>
		</contour>
		<contour>
			<point x="59" y="16" type="line"/>
			<point x="59" y="23" type="line"/>
			<point x="29" y="23" type="line"/>
			<point x="29" y="16" type="line"/>
		</contour>
		<contour>
			<point x="71" y="45" type="line"/>
			<point x="71" y="51" type="line"/>
			<point x="29" y="51" type="line"/>
			<point x="29" y="45" type="line"/>
		</contour>
		<contour>
			<point x="87" y="19" type="line"/>
			<point x="87" y="-13" type="line"/>
			<point x="94" y="-13" type="line"/>
			<point x="94" y="19" type="line"/>
		</contour>
		<contour>
			<point x="119" y="51" type="line"/>
			<point x="91" y="51" type="line"/>
			<point x="91" y="45" type="line"/>
			<point x="119" y="45" type="line"/>
		</contour>
		<contour>
			<point x="135" y="19" type="line"/>
			<point x="135" y="-13" type="line"/>
			<point x="142" y="-13" type="line"/>
			<point x="142" y="19" type="line"/>
		</contour>
		<contour>
			<point x="140" y="19" type="line"/>
			<point x="91" y="19" type="line"/>
			<point x="91" y="12" type="line"/>
			<point x="140" y="12" type="line"/>
		</contour>
		<contour>
			<point x="87" y="51" type="line"/>
			<point x="87" y="19" type="line"/>
			<point x="94" y="19" type="line"/>
			<point x="94" y="51" type="line"/>
		</contour>
		<contour>
			<point x="116" y="51" type="line"/>
			<point x="116" y="19" type="line"/>
			<point x="124" y="19" type="line"/>
			<point x="124" y="51" type="line"/>
		</contour>
		<contour>
			<point x="1" y="-13" type="line"/>
			<point x="9" y="-13" type="line"/>
			<point x="9" y="-2" type="line"/>
			<point x="1" y="-2" type="line"/>
		</contour>
		<contour>
			<point x="581" y="373" type="line"/>
			<point x="589" y="373" type="line"/>
			<point x="589" y="384" type="line"/>
			<point x="581" y="384" type="line"/>
		</contour>
		<contour>
			<point x="585" y="364" type="line"/>
			<point x="589" y="364" type="line"/>
			<point x="589" y="380" type="line"/>
			<point x="585" y="380" type="line"/>
		</contour>
		<contour>
			<point x="307" y="471" type="line"/>
			<point x="593" y="471" type="line"/>
			<point x="593" y="535" type="line"/>
			<point x="307" y="535" type="line"/>
		</contour>
		<contour>
			<point x="439" y="180" type="line"/>
			<point x="593" y="180" type="line"/>
			<point x="593" y="245" type="line"/>
			<point x="439" y="245" type="line"/>
		</contour>
		<contour>
			<point x="165" y="-13" type="line"/>
			<point x="593" y="-13" type="line"/>
			<point x="593" y="51" type="line"/>
			<point x="165" y="51" type="line"/>
		</contour>
		<contour>
			<point x="7" y="277" type="line"/>
			<point x="13" y="277" type="line"/>
			<point x="13" y="342" type="line"/>
			<point x="7" y="342" type="line"/>
		</contour>
		<contour>
			<point x="39" y="307" type="line"/>
			<point x="39" y="312" type="line"/>
			<point x="9" y="312" type="line"/>
			<point x="9" y="307" type="line"/>
		</contour>
		<contour>
			<point x="52" y="335" type="line"/>
			<point x="52" y="342" type="line"/>
			<point x="9" y="342" type="line"/>
			<point x="9" y="335" type="line"/>
		</contour>
		<contour>
			<point x="65" y="277" type="line"/>
			<point x="71" y="277" type="line"/>
			<point x="71" y="342" type="line"/>
			<point x="65" y="342" type="line"/>
		</contour>
		<contour>
			<point x="110" y="335" type="line"/>
			<point x="110" y="342" type="line"/>
			<point x="68" y="342" type="line"/>
			<point x="68" y="335" type="line"/>
		</contour>
		<contour>
			<point x="110" y="277" type="line"/>
			<point x="110" y="285" type="line"/>
			<point x="68" y="285" type="line"/>
			<point x="68" y="277" type="line"/>
		</contour>
		<contour>
			<point x="107" y="277" type="line"/>
			<point x="114" y="277" type="line"/>
			<point x="114" y="342" type="line"/>
			<point x="107" y="342" type="line"/>
		</contour>
		<contour>
			<point x="292" y="277" type="line"/>
			<point x="302" y="277" type="line"/>
			<point x="302" y="342" type="line"/>
			<point x="292" y="342" type="line"/>
		</contour>
		<contour>
			<point x="307" y="342" type="line"/>
			<point x="307" y="316" type="line"/>
			<point x="313" y="316" type="line"/>
			<point x="313" y="342" type="line"/>
		</contour>
		<contour>
			<point x="308" y="342" type="line"/>
			<point x="297" y="342" type="line"/>
			<point x="297" y="335" type="line"/>
			<point x="308" y="335" type="line"/>
		</contour>
		<contour>
			<point x="318" y="322" type="line"/>
			<point x="318" y="297" type="line"/>
			<point x="323" y="297" type="line"/>
			<point x="323" y="322" type="line"/>
		</contour>
		<contour>
			<point x="321" y="322" type="line"/>
			<point x="307" y="322" type="line"/>
			<point x="307" y="316" type="line"/>
			<point x="321" y="316" type="line"/>
		</contour>
		<contour>
			<point x="329" y="303" type="line"/>
			<point x="318" y="303" type="line"/>
			<point x="318" y="297" type="line"/>
			<point x="329" y="297" type="line"/>
		</contour>
		<contour>
			<point x="364" y="277" type="line"/>
			<point x="364" y="342" type="line"/>
			<point x="358" y="342" type="line"/>
			<point x="358" y="277" type="line"/>
		</contour>
		<contour>
			<point x="352" y="342" type="line"/>
			<point x="345" y="342" type="line"/>
			<point x="345" y="316" type="line"/>
			<point x="352" y="316" type="line"/>
		</contour>
		<contour>
			<point x="348" y="342" type="line"/>
			<point x="348" y="335" type="line"/>
			<point x="361" y="335" type="line"/>
			<point x="361" y="342" type="line"/>
		</contour>
		<contour>
			<point x="343" y="322" type="line"/>
			<point x="336" y="322" type="line"/>
			<point x="336" y="297" type="line"/>
			<point x="343" y="297" type="line"/>
		</contour>
		<contour>
			<point x="339" y="322" type="line"/>
			<point x="339" y="316" type="line"/>
			<point x="352" y="316" type="line"/>
			<point x="352" y="322" type="line"/>
		</contour>
		<contour>
			<point x="329" y="303" type="line"/>
			<point x="329" y="297" type="line"/>
			<point x="343" y="297" type="line"/>
			<point x="343" y="303" type="line"/>
		</contour>
		<contour>
			<point x="326" y="303" type="line"/>
			<point x="326" y="277" type="line"/>
			<point x="333" y="277" type="line"/>
			<point x="333" y="303" type="line"/>
		</contour>
		<contour>
			<point x="133" y="309" type="line"/>
			<point x="133" y="277" type="line"/>
			<point x="140" y="277" type="line"/>
			<point x="140" y="309" type="line"/>
		</contour>
		<contour>
			<point x="165" y="342" type="line"/>
			<point x="135" y="342" type="line"/>
			<point x="135" y="335" type="line"/>
			<point x="165" y="335" type="line"/>
		</contour>
		<contour>
			<point x="181" y="309" type="line"/>
			<point x="181" y="277" type="line"/>
			<point x="187" y="277" type="line"/>
			<point x="187" y="309" type="line"/>
		</contour>
		<contour>
			<point x="185" y="309" type="line"/>
			<point x="135" y="309" type="line"/>
			<point x="135" y="303" type="line"/>
			<point x="185" y="303" type="line"/>
		</contour>
		<contour>
			<point x="133" y="342" type="line"/>
			<point x="133" y="309" type="line"/>
			<point x="140" y="309" type="line"/>
			<point x="140" y="342" type="line"/>
		</contour>
		<contour>
			<point x="162" y="342" type="line"/>
			<point x="162" y="309" type="line"/>
			<point x="168" y="309" type="line"/>
			<point x="168" y="342" type="line"/>
		</contour>
		<contour>
			<point x="387" y="277" type="line"/>
			<point x="394" y="277" type="line"/>
			<point x="394" y="342" type="line"/>
			<point x="387" y="342" type="line"/>
		</contour>
		<contour>
			<point x="420" y="307" type="line"/>
			<point x="420" y="312" type="line"/>
			<point x="390" y="312" type="line"/>
			<point x="390" y="307" type="line"/>
		</contour>
		<contour>
			<point x="432" y="335" type="line"/>
			<point x="432" y="342" type="line"/>
			<point x="390" y="342" type="line"/>
			<point x="390" y="335" type="line"/>
		</contour>
		<contour>
			<point x="432" y="277" type="line"/>
			<point x="432" y="285" type="line"/>
			<point x="390" y="285" type="line"/>
			<point x="390" y="277" type="line"/>
		</contour>
		<contour>
			<point x="470" y="277" type="line"/>
			<point x="478" y="277" type="line"/>
			<point x="478" y="342" type="line"/>
			<point x="470" y="342" type="line"/>
		</contour>
		<contour>
			<point x="516" y="335" type="line"/>
			<point x="516" y="342" type="line"/>
			<point x="475" y="342" type="line"/>
			<point x="475" y="335" type="line"/>
		</contour>
		<contour>
			<point x="516" y="277" type="line"/>
			<point x="516" y="285" type="line"/>
			<point x="475" y="285" type="line"/>
			<point x="475" y="277" type="line"/>
		</contour>
		<contour>
			<point x="513" y="277" type="line"/>
			<point x="519" y="277" type="line"/>
			<point x="519" y="342" type="line"/>
			<point x="513" y="342" type="line"/>
		</contour>
		<contour>
			<point x="539" y="309" type="line"/>
			<point x="539" y="277" type="line"/>
			<point x="546" y="277" type="line"/>
			<point x="546" y="309" type="line"/>
		</contour>
		<contour>
			<point x="571" y="342" type="line"/>
			<point x="542" y="342" type="line"/>
			<point x="542" y="335" type="line"/>
			<point x="571" y="335" type="line"/>
		</contour>
		<contour>
			<point x="587" y="309" type="line"/>
			<point x="587" y="277" type="line"/>
			<point x="593" y="277" type="line"/>
			<point x="593" y="309" type="line"/>
		</contour>
		<contour>
			<point x="589" y="309" type="line"/>
			<point x="542" y="309" type="line"/>
			<point x="542" y="303" type="line"/>
			<point x="589" y="303" type="line"/>
		</contour>
		<contour>
			<point x="539" y="342" type="line"/>
			<point x="539" y="309" type="line"/>
			<point x="546" y="309" type="line"/>
			<point x="546" y="342" type="line"/>
		</contour>
		<contour>
			<point x="568" y="342" type="line"/>
			<point x="568" y="309" type="line"/>
			<point x="573" y="309" type="line"/>
			<point x="573" y="342" type="line"/>
		</contour>
		<contour>
			<point x="210" y="277" type="line"/>
			<point x="210" y="342" type="line"/>
			<point x="204" y="342" type="line"/>
			<point x="204" y="277" type="line"/>
		</contour>
		<contour>
			<point x="242" y="342" type="line"/>
			<point x="236" y="342" type="line"/>
			<point x="236" y="316" type="line"/>
			<point x="242" y="316" type="line"/>
		</contour>
		<contour>
			<point x="239" y="342" type="line"/>
			<point x="239" y="335" type="line"/>
			<point x="251" y="335" type="line"/>
			<point x="251" y="342" type="line"/>
		</contour>
		<contour>
			<point x="227" y="322" type="line"/>
			<point x="219" y="322" type="line"/>
			<point x="219" y="297" type="line"/>
			<point x="227" y="297" type="line"/>
		</contour>
		<contour>
			<point x="223" y="322" type="line"/>
			<point x="223" y="316" type="line"/>
			<point x="242" y="316" type="line"/>
			<point x="242" y="322" type="line"/>
		</contour>
		<contour>
			<point x="207" y="312" type="line"/>
			<point x="207" y="307" type="line"/>
			<point x="223" y="307" type="line"/>
			<point x="223" y="312" type="line"/>
		</contour>
		<contour>
			<point x="242" y="277" type="line"/>
			<point x="242" y="303" type="line"/>
			<point x="236" y="303" type="line"/>
			<point x="236" y="277" type="line"/>
		</contour>
		<contour>
			<point x="239" y="277" type="line"/>
			<point x="251" y="277" type="line"/>
			<point x="251" y="285" type="line"/>
			<point x="239" y="285" type="line"/>
		</contour>
		<contour>
			<point x="223" y="303" type="line"/>
			<point x="223" y="297" type="line"/>
			<point x="242" y="297" type="line"/>
			<point x="242" y="303" type="line"/>
		</contour>
		<contour>
			<point x="116" y="439" type="line"/>
			<point x="116" y="412" type="line"/>
			<point x="124" y="412" type="line"/>
			<point x="124" y="439" type="line"/>
		</contour>
		<contour>
			<point x="119" y="439" type="line"/>
			<point x="107" y="439" type="line"/>
			<point x="107" y="432" type="line"/>
			<point x="119" y="432" type="line"/>
		</contour>
		<contour>
			<point x="126" y="418" type="line"/>
			<point x="126" y="393" type="line"/>
			<point x="133" y="393" type="line"/>
			<point x="133" y="418" type="line"/>
		</contour>
		<contour>
			<point x="129" y="418" type="line"/>
			<point x="116" y="418" type="line"/>
			<point x="116" y="412" type="line"/>
			<point x="129" y="412" type="line"/>
		</contour>
		<contour>
			<point x="135" y="400" type="line"/>
			<point x="135" y="373" type="line"/>
			<point x="142" y="373" type="line"/>
			<point x="142" y="400" type="line"/>
		</contour>
		<contour>
			<point x="140" y="400" type="line"/>
			<point x="126" y="400" type="line"/>
			<point x="126" y="393" type="line"/>
			<point x="140" y="393" type="line"/>
		</contour>
		<contour>
			<point x="107" y="439" type="line"/>
			<point x="101" y="439" type="line"/>
			<point x="101" y="412" type="line"/>
			<point x="107" y="412" type="line"/>
		</contour>
		<contour>
			<point x="97" y="418" type="line"/>
			<point x="91" y="418" type="line"/>
			<point x="91" y="393" type="line"/>
			<point x="97" y="393" type="line"/>
		</contour>
		<contour>
			<point x="94" y="418" type="line"/>
			<point x="94" y="412" type="line"/>
			<point x="107" y="412" type="line"/>
			<point x="107" y="418" type="line"/>
		</contour>
		<contour>
			<point x="87" y="400" type="line"/>
			<point x="81" y="400" type="line"/>
			<point x="81" y="373" type="line"/>
			<point x="87" y="373" type="line"/>
		</contour>
		<contour>
			<point x="85" y="400" type="line"/>
			<point x="85" y="393" type="line"/>
			<point x="129" y="393" type="line"/>
			<point x="129" y="400" type="line"/>
		</contour>
		<contour>
			<point x="281" y="245" type="line"/>
			<point x="281" y="219" type="line"/>
			<point x="287" y="219" type="line"/>
			<point x="287" y="245" type="line"/>
		</contour>
		<contour>
			<point x="286" y="245" type="line"/>
			<point x="271" y="245" type="line"/>
			<point x="271" y="237" type="line"/>
			<point x="286" y="237" type="line"/>
		</contour>
		<contour>
			<point x="287" y="225" type="line"/>
			<point x="287" y="200" type="line"/>
			<point x="297" y="200" type="line"/>
			<point x="297" y="225" type="line"/>
		</contour>
		<contour>
			<point x="292" y="225" type="line"/>
			<point x="281" y="225" type="line"/>
			<point x="281" y="219" type="line"/>
			<point x="292" y="219" type="line"/>
		</contour>
		<contour>
			<point x="302" y="206" type="line"/>
			<point x="302" y="180" type="line"/>
			<point x="307" y="180" type="line"/>
			<point x="307" y="206" type="line"/>
		</contour>
		<contour>
			<point x="307" y="206" type="line"/>
			<point x="287" y="206" type="line"/>
			<point x="287" y="200" type="line"/>
			<point x="307" y="200" type="line"/>
		</contour>
		<contour>
			<point x="271" y="245" type="line"/>
			<point x="265" y="245" type="line"/>
			<point x="265" y="219" type="line"/>
			<point x="271" y="219" type="line"/>
		</contour>
		<contour>
			<point x="261" y="225" type="line"/>
			<point x="255" y="225" type="line"/>
			<point x="255" y="200" type="line"/>
			<point x="261" y="200" type="line"/>
		</contour>
		<contour>
			<point x="258" y="225" type="line"/>
			<point x="258" y="219" type="line"/>
			<point x="271" y="219" type="line"/>
			<point x="271" y="225" type="line"/>
		</contour>
		<contour>
			<point x="251" y="206" type="line"/>
			<point x="246" y="206" type="line"/>
			<point x="246" y="180" type="line"/>
			<point x="251" y="180" type="line"/>
		</contour>
		<contour>
			<point x="249" y="206" type="line"/>
			<point x="249" y="200" type="line"/>
			<point x="292" y="200" type="line"/>
			<point x="292" y="206" type="line"/>
		</contour>
	</outline>
</glyph>
<glyph name="newGlyph" format="2">
	<advance width="600"/>
	<outline>
		<contour>
			<point x="506" y="358" type="line"/>
			<point x="594" y="358" type="line"/>
			<point x="594" y="438" type="line"/>
			<point x="199" y="438" type="line"/>
			<point x="143" y="90" type="line"/>
			<point x="140" y="90" type="line"/>
			<point x="85" y="443" type="line"/>
			<point x="6" y="443" type="line"/>
			<point x="78" y="0" type="line"/>
			<point x="204" y="0" type="line"/>
			<point x="262" y="358" type="line"/>
			<point x="297" y="358" type="line"/>
			<point x="297" y="0" type="line"/>
			<point x="382" y="0" type="line"/>
			<point x="382" y="358" type="line"/>
			<point x="421" y="358" type="line"/>
			<point x="421" y="0" type="line"/>
			<point x="506" y="0" type="line"/>
			<point x="506" y="180" type="line"/>
			<point x="578" y="180" type="line"/>
			<point x="578" y="260" type="line"/>
			<point x="506" y="260" type="line"/>
		</contour>
	</outline>
</glyph>
